<?xml version="1.0" standalone="no"?>
<!DOCTYPE svg PUBLIC "-//W3C//DTD SVG 20010904//EN"
 "http://www.w3.org/TR/2001/REC-SVG-20010904/DTD/svg10.dtd">
<svg version="1.0" xmlns="http://www.w3.org/2000/svg"
 width="604.000000pt" height="604.000000pt" viewBox="0 0 604.000000 604.000000"
 preserveAspectRatio="xMidYMid meet">
<metadata>
Created by potrace 1.14, written by Peter Selinger 2001-2017
</metadata>
<g transform="translate(0.000000,604.000000) scale(0.100000,-0.100000)"
fill="#000000" stroke="none">
<path d="M1760 5700 c-8 -5 -23 -7 -32 -4 -11 3 -18 0 -18 -8 0 -10 -3 -9 -10
2 -7 11 -10 12 -10 2 0 -9 -7 -11 -20 -7 -13 4 -20 2 -20 -7 0 -10 -3 -9 -10
2 -8 13 -10 12 -10 -2 0 -10 -5 -18 -11 -18 -5 0 -8 4 -4 9 3 5 1 13 -5 16 -6
4 -9 1 -8 -5 2 -7 -6 -14 -16 -16 -10 -1 -23 -9 -27 -16 -7 -10 -9 -10 -9 2 0
13 -1 13 -10 0 -5 -8 -17 -15 -27 -15 -10 -1 -17 -7 -15 -15 2 -10 0 -11 -11
-2 -11 9 -18 8 -32 -8 -10 -12 -25 -18 -32 -16 -7 3 -12 2 -12 -2 3 -18 -2
-32 -12 -32 -5 0 -7 5 -4 10 3 6 4 10 0 10 -3 0 -10 -11 -15 -25 -6 -16 -17
-25 -30 -25 -12 0 -18 -4 -15 -10 3 -5 -1 -10 -10 -10 -12 0 -15 -5 -11 -16 6
-14 4 -15 -9 -4 -9 7 -15 9 -14 4 4 -21 -2 -35 -11 -29 -5 3 -10 -1 -10 -9 0
-8 -9 -20 -20 -26 -11 -6 -20 -18 -20 -26 0 -9 -5 -12 -12 -8 -7 5 -9 2 -5 -9
3 -9 -1 -18 -10 -21 -8 -4 -13 -13 -9 -21 3 -8 0 -14 -7 -12 -7 1 -11 -6 -11
-15 1 -11 -5 -18 -15 -18 -14 0 -14 -2 -1 -10 13 -8 12 -10 -2 -10 -10 0 -18
-5 -18 -11 0 -5 5 -7 11 -3 6 3 3 -5 -6 -19 -9 -15 -14 -31 -10 -37 3 -6 -4
-10 -17 -11 -18 -1 -19 -2 -5 -6 14 -4 16 -8 6 -19 -6 -7 -9 -21 -5 -29 3 -10
-1 -15 -12 -16 -11 0 -12 -2 -4 -6 10 -4 10 -8 0 -21 -7 -9 -8 -13 -2 -9 6 3
11 -1 11 -9 0 -8 -6 -13 -12 -10 -15 5 -12 -28 4 -48 16 -19 1 -21 -19 -3 -12
10 -12 9 -3 -3 14 -20 22 -90 10 -90 -5 0 -3 -8 4 -17 10 -11 10 -14 2 -9 -10
5 -11 1 -3 -18 8 -21 7 -24 -8 -20 -14 5 -13 3 2 -10 11 -9 15 -16 9 -16 -6 0
-14 -8 -18 -17 -5 -15 -4 -16 6 -5 7 6 18 12 23 12 7 0 8 -3 1 -8 -14 -10 -34
-69 -26 -77 3 -4 7 -23 7 -43 2 -40 9 -76 19 -92 4 -6 3 -10 -2 -9 -20 3 -25
-2 -13 -16 7 -9 8 -15 2 -15 -5 0 -13 -7 -16 -16 -5 -14 -4 -15 9 -4 9 7 18
10 22 6 3 -3 1 -6 -5 -6 -15 0 -19 -28 -11 -67 4 -20 3 -33 -3 -33 -6 0 -4 -8
3 -17 10 -11 10 -14 2 -9 -10 5 -11 1 -3 -18 8 -21 7 -24 -8 -20 -14 5 -13 3
2 -10 11 -9 15 -16 9 -16 -6 0 -14 -8 -18 -17 -5 -15 -4 -16 6 -5 7 6 18 12
23 12 7 0 8 -3 1 -8 -14 -10 -34 -69 -26 -77 3 -4 7 -23 7 -43 2 -40 9 -76 19
-91 3 -5 1 -13 -5 -16 -6 -4 -10 -3 -9 2 3 19 -2 33 -12 33 -8 0 -8 -5 1 -15
7 -8 10 -15 7 -15 -3 0 -1 -16 3 -35 5 -22 4 -35 -2 -35 -6 0 -4 -8 3 -17 8
-9 9 -14 3 -10 -6 3 -11 0 -11 -7 0 -8 5 -13 11 -12 6 2 8 1 3 -1 -4 -3 -5 -9
-2 -14 4 -5 -2 -6 -12 -3 -17 5 -17 5 -1 -9 18 -14 25 -33 9 -23 -4 3 -5 -9
-2 -27 5 -23 3 -35 -7 -43 -12 -9 -13 -12 -2 -19 9 -6 11 -4 5 6 -8 12 -6 12
8 0 19 -15 23 -26 5 -15 -8 5 -9 -3 -5 -29 3 -22 2 -37 -4 -37 -6 0 -7 5 -4
10 3 6 1 10 -4 10 -13 0 -14 -13 -3 -24 4 -4 8 -24 8 -44 2 -40 9 -76 19 -92
4 -6 3 -10 -2 -9 -20 3 -25 -2 -13 -16 7 -9 8 -15 2 -15 -5 0 -13 -7 -16 -16
-5 -14 -4 -15 9 -4 9 7 18 10 22 6 3 -3 1 -6 -5 -6 -15 0 -19 -28 -11 -67 4
-20 3 -33 -3 -33 -6 0 -4 -8 3 -17 10 -11 10 -14 2 -9 -10 5 -11 1 -3 -18 8
-21 7 -24 -8 -20 -14 5 -13 3 2 -10 11 -9 15 -16 9 -16 -6 0 -14 -8 -18 -17
-5 -15 -4 -16 6 -5 7 6 18 12 24 12 6 0 7 -3 0 -8 -14 -10 -34 -69 -26 -77 3
-4 7 -23 7 -43 2 -40 9 -76 19 -91 3 -5 1 -13 -5 -16 -6 -4 -10 -3 -9 2 3 19
-2 33 -12 33 -8 0 -8 -5 1 -15 7 -8 10 -15 7 -15 -3 0 -1 -16 3 -35 5 -22 4
-35 -2 -35 -6 0 -4 -8 3 -17 8 -9 9 -14 3 -10 -6 3 -11 0 -11 -7 0 -8 5 -13
11 -12 6 2 8 1 3 -1 -4 -3 -5 -9 -2 -14 4 -5 -2 -6 -12 -3 -17 5 -17 5 0 -9
17 -14 24 -33 8 -23 -4 3 -5 -9 -2 -27 5 -23 3 -35 -7 -43 -12 -9 -13 -12 -2
-19 9 -5 11 -4 6 3 -11 18 0 14 15 -5 12 -14 12 -16 0 -8 -11 7 -13 1 -8 -28
3 -22 2 -37 -4 -37 -6 0 -7 5 -4 10 3 6 1 10 -4 10 -13 0 -14 -13 -4 -24 5 -4
9 -24 9 -44 2 -40 9 -76 19 -92 4 -6 3 -10 -2 -9 -20 3 -25 -2 -13 -16 7 -9 8
-15 2 -15 -5 0 -13 -7 -16 -16 -5 -14 -4 -15 9 -4 9 7 18 10 22 6 3 -3 1 -6
-5 -6 -15 0 -19 -28 -11 -67 4 -20 3 -33 -3 -33 -6 0 -4 -8 3 -17 10 -11 10
-14 2 -9 -10 5 -11 1 -3 -18 8 -21 7 -24 -8 -20 -14 5 -13 3 2 -10 11 -9 15
-16 9 -16 -6 0 -14 -8 -18 -17 -5 -15 -4 -16 6 -5 7 6 18 12 23 12 7 0 8 -3 1
-8 -14 -10 -34 -69 -26 -77 3 -4 7 -23 7 -43 2 -40 9 -76 19 -92 4 -6 3 -10
-2 -9 -20 3 -25 -2 -13 -16 7 -9 8 -15 2 -15 -5 0 -13 -7 -16 -16 -5 -14 -4
-15 9 -4 9 7 18 10 22 6 3 -3 1 -6 -5 -6 -15 0 -19 -28 -11 -67 4 -20 3 -33
-3 -33 -6 0 -4 -8 3 -17 10 -11 10 -14 2 -9 -10 5 -11 1 -3 -18 8 -21 7 -24
-8 -20 -14 5 -13 3 2 -10 11 -9 15 -16 9 -16 -6 0 -14 -7 -17 -16 -5 -14 -4
-15 9 -4 9 7 18 10 22 6 3 -3 2 -6 -4 -6 -16 0 -25 -61 -12 -76 7 -9 8 -14 1
-14 -5 0 -13 -7 -16 -16 -5 -14 -4 -15 9 -4 9 7 18 10 22 6 3 -3 1 -6 -5 -6
-15 0 -19 -28 -11 -67 4 -20 3 -33 -3 -33 -6 0 -4 -8 3 -17 10 -11 10 -14 2
-9 -10 5 -11 1 -3 -18 8 -21 7 -24 -8 -20 -14 5 -13 3 2 -10 11 -9 15 -16 9
-16 -6 0 -14 -7 -17 -16 -5 -14 -4 -15 9 -4 9 7 18 10 22 6 3 -3 2 -6 -4 -6
-16 0 -25 -61 -12 -76 7 -9 8 -14 1 -14 -5 0 -13 -7 -16 -16 -5 -14 -4 -15 9
-4 9 7 18 10 22 6 3 -3 1 -6 -5 -6 -15 0 -19 -28 -11 -67 4 -18 3 -33 -1 -33
-5 0 -7 -11 -4 -24 2 -14 0 -28 -6 -31 -6 -4 -8 -11 -4 -16 3 -5 9 -7 14 -4 4
3 10 -2 14 -10 3 -8 -3 -19 -12 -24 -16 -10 -16 -10 1 -11 9 0 17 -7 17 -16 0
-8 -4 -12 -10 -9 -5 3 -10 1 -10 -4 0 -6 5 -11 12 -11 6 0 8 -3 5 -7 -4 -3 -1
-13 6 -21 9 -13 9 -14 0 -8 -18 10 -16 1 3 -18 8 -9 11 -16 5 -16 -6 0 -11 -5
-11 -11 0 -5 4 -8 9 -5 5 3 14 -1 20 -8 9 -10 9 -16 1 -21 -8 -5 -8 -11 1 -21
6 -7 16 -11 22 -7 6 3 7 1 3 -6 -4 -6 -12 -9 -17 -6 -5 4 -4 -5 3 -19 6 -14
15 -26 20 -26 5 0 6 -5 2 -12 -5 -8 -2 -9 11 -4 15 5 16 4 5 -9 -10 -12 -9
-15 5 -15 14 0 15 -3 5 -15 -11 -13 -10 -14 5 -8 15 5 17 3 12 -11 -4 -9 -3
-15 2 -12 4 3 17 -5 29 -18 15 -18 17 -27 9 -36 -7 -6 -7 -11 -2 -10 23 5 35
-1 35 -17 0 -16 2 -16 11 -3 9 12 10 11 6 -7 -3 -15 -1 -20 9 -16 8 3 17 -2
20 -11 3 -9 13 -16 20 -16 8 0 19 -10 24 -22 5 -13 9 -17 9 -10 1 10 5 10 17
-2 8 -9 13 -20 10 -24 -3 -5 5 -7 18 -5 17 4 27 -1 35 -16 7 -12 17 -18 26
-15 8 4 15 1 15 -4 0 -12 34 -25 65 -26 11 -1 19 -7 17 -14 -1 -9 6 -7 25 5
23 14 26 15 16 2 -7 -9 -10 -19 -6 -22 3 -4 12 1 20 11 8 11 12 12 11 3 -4
-17 32 -24 49 -9 9 7 15 6 19 -7 5 -13 9 -14 15 -3 7 10 9 10 9 1 0 -7 5 -13
11 -13 5 0 7 4 4 10 -3 6 1 7 9 4 9 -3 14 -9 11 -13 -2 -4 3 -8 11 -8 8 0 13
5 11 12 -3 6 3 11 13 11 10 0 16 -5 13 -11 -6 -17 29 -15 49 2 12 11 18 11 24
2 4 -7 3 -10 -4 -5 -6 3 -13 2 -17 -4 -3 -5 1 -10 9 -10 9 0 16 -6 17 -12 5
-54 4 -76 -3 -72 -4 3 -8 1 -8 -5 0 -5 6 -12 13 -14 9 -4 9 -6 0 -6 -14 -1 -6
-32 11 -43 8 -5 7 -8 -1 -8 -6 0 -10 -11 -9 -25 2 -13 0 -22 -5 -19 -4 2 -6
-6 -3 -18 3 -13 6 -29 6 -36 1 -7 7 -11 14 -8 8 3 16 0 20 -6 4 -7 3 -8 -4 -4
-7 4 -12 1 -12 -9 0 -9 4 -14 9 -10 5 3 13 1 16 -5 4 -6 16 -8 27 -4 16 5 19
3 12 -7 -7 -12 -5 -12 9 -1 9 8 21 11 27 7 5 -3 10 2 10 12 0 15 2 16 10 3 9
-14 15 -7 11 14 -1 5 5 6 14 3 9 -4 15 -1 15 8 0 8 5 14 12 12 7 -1 17 8 23
20 12 27 27 31 19 6 -3 -10 4 -3 16 15 13 18 28 31 36 28 7 -3 18 3 26 12 11
15 11 16 -2 7 -9 -5 -8 -2 3 7 10 9 23 16 30 14 7 -1 9 -1 5 1 -15 9 -8 25 7
19 9 -3 18 0 21 8 3 7 11 13 19 13 8 0 12 -4 9 -9 -3 -4 5 -8 17 -8 12 0 20
-3 16 -6 -3 -3 0 -12 6 -19 9 -10 15 -10 26 -1 12 9 13 7 9 -11 -4 -16 -2 -20
8 -16 8 3 14 0 14 -7 0 -7 7 -10 17 -6 10 4 15 4 11 1 -7 -7 39 -55 53 -55 5
0 12 -7 15 -15 4 -8 10 -12 15 -9 5 3 9 0 9 -6 0 -6 5 -8 10 -5 6 3 10 0 10
-8 0 -8 7 -18 16 -21 22 -8 26 -8 19 4 -7 11 23 2 43 -13 9 -7 11 -6 6 6 -4
12 -1 14 17 10 14 -4 20 -2 16 4 -4 6 0 14 9 17 8 3 13 10 9 15 -3 5 0 13 6
17 7 4 9 3 5 -4 -3 -6 -3 -13 2 -16 4 -2 8 6 8 20 0 13 -5 24 -10 24 -6 0 -4
5 4 10 11 7 11 10 2 10 -10 0 -10 5 -1 21 8 16 8 20 -1 14 -9 -6 -9 -3 -1 13
14 26 14 35 0 26 -7 -4 -6 2 1 17 10 17 10 24 2 27 -9 3 -9 9 -2 23 7 11 7 19
1 19 -5 0 -7 9 -4 20 3 11 10 17 17 13 6 -4 4 2 -4 13 -8 10 -10 16 -6 12 5
-4 15 -3 23 4 10 8 12 8 8 -4 -8 -20 25 -20 49 1 11 9 16 10 12 4 -8 -14 -7
-15 45 -17 27 -1 35 2 32 11 -4 9 0 11 11 7 9 -3 13 -11 9 -18 -4 -6 0 -6 9 2
10 8 19 9 22 3 9 -13 48 -10 42 4 -2 6 4 11 14 11 10 0 16 -5 14 -11 -5 -13
33 -17 41 -4 4 5 11 9 16 9 6 0 7 -6 3 -12 -6 -10 -4 -10 8 0 10 8 19 9 22 3
9 -13 48 -10 42 4 -2 6 4 11 14 11 10 0 16 -5 13 -11 -6 -17 29 -15 50 3 16
14 17 14 12 1 -4 -10 0 -16 9 -16 8 0 12 6 9 16 -5 13 -3 14 8 4 7 -7 17 -13
22 -13 4 0 5 6 1 13 -5 7 0 6 11 -3 21 -17 85 -21 79 -5 -3 6 4 11 15 11 15 0
17 -3 9 -13 -13 -16 -10 -16 41 2 37 13 43 13 47 0 4 -8 11 -15 16 -15 6 0 8
6 5 13 -3 7 3 13 13 13 10 0 16 -5 14 -11 -3 -7 12 -11 39 -11 32 1 43 4 40
13 -4 10 5 9 36 -2 29 -10 42 -11 47 -3 5 7 2 8 -7 3 -8 -5 -10 -4 -6 0 12 14
36 14 31 1 -3 -7 2 -13 10 -13 8 0 12 6 9 16 -5 13 -3 14 8 4 7 -7 17 -13 22
-13 4 0 5 6 1 13 -5 7 0 6 11 -3 23 -19 85 -21 78 -3 -4 9 0 11 11 7 9 -3 13
-11 9 -18 -4 -6 0 -6 9 2 10 8 19 9 22 3 9 -13 48 -10 42 4 -2 6 4 11 14 11
10 0 16 -5 14 -11 -5 -13 33 -17 41 -4 4 5 11 9 16 9 6 0 7 -6 3 -12 -6 -10
-4 -10 8 0 10 8 19 9 22 3 9 -13 48 -10 42 4 -2 6 4 11 14 11 10 0 16 -5 13
-11 -6 -17 29 -15 50 3 16 14 17 14 12 1 -4 -10 0 -16 9 -16 8 0 12 6 9 16 -5
13 -3 14 8 3 17 -16 32 -16 23 1 -5 7 0 6 11 -3 21 -17 85 -21 79 -5 -3 6 4
11 15 11 15 0 17 -3 9 -13 -13 -16 -10 -16 41 2 37 13 43 13 47 0 4 -8 11 -15
16 -15 6 0 8 6 5 13 -3 7 3 13 13 13 10 0 16 -5 14 -11 -3 -7 12 -11 39 -11
32 1 43 4 40 13 -4 10 5 9 36 -2 29 -10 42 -11 47 -3 5 7 2 8 -7 3 -8 -5 -10
-4 -6 0 12 14 36 14 31 1 -3 -7 2 -13 10 -13 8 0 12 6 9 16 -5 13 -3 14 8 4 7
-7 17 -13 22 -13 4 0 5 6 1 13 -4 6 1 5 12 -4 12 -10 34 -15 59 -13 57 3 57 3
51 13 -3 5 1 11 9 15 8 3 15 1 15 -5 0 -6 5 -7 10 -4 6 4 8 10 5 15 -3 4 3 14
12 21 14 12 16 12 8 0 -6 -10 -4 -12 4 -7 7 5 10 14 7 21 -3 8 0 16 7 19 9 3
9 5 0 5 -7 1 -13 6 -13 12 0 6 7 8 17 5 10 -4 14 -4 10 0 -4 4 -1 14 6 23 10
14 10 14 -4 3 -14 -11 -16 -9 -14 13 2 14 -1 25 -5 25 -5 0 -7 9 -5 20 2 12 0
18 -6 14 -5 -3 -24 8 -41 25 -30 30 -32 30 -52 13 -10 -9 -16 -12 -13 -6 4 7
0 17 -8 24 -13 11 -14 10 -8 -6 6 -17 5 -18 -12 -4 -10 8 -16 10 -12 4 4 -7 0
-14 -8 -18 -8 -3 -14 -2 -14 2 1 4 1 14 -1 22 -1 11 -3 10 -9 -4 -4 -11 -17
-20 -29 -21 -11 -1 -19 1 -17 5 2 3 0 12 -6 20 -7 12 -9 12 -9 -4 0 -16 -2
-17 -17 -5 -9 8 -14 9 -10 3 4 -7 0 -14 -8 -18 -8 -3 -14 -2 -14 2 1 4 1 14
-1 22 -1 11 -3 10 -9 -4 -4 -11 -17 -20 -29 -21 -11 -1 -19 1 -17 5 2 3 0 12
-6 20 -7 12 -9 12 -9 -4 0 -16 -2 -17 -17 -5 -9 8 -14 9 -10 3 4 -7 0 -14 -8
-18 -8 -3 -14 -2 -14 2 1 4 1 14 -1 22 -1 11 -3 10 -9 -4 -4 -11 -17 -20 -29
-21 -11 -1 -19 1 -17 5 2 3 0 12 -6 20 -7 12 -9 12 -9 -4 0 -16 -2 -17 -17 -5
-9 8 -14 9 -10 3 4 -7 0 -14 -8 -18 -8 -3 -14 -2 -14 2 1 4 1 14 -1 22 -1 11
-3 10 -9 -4 -4 -11 -17 -20 -29 -21 -11 -1 -19 1 -17 5 2 3 0 12 -6 20 -7 12
-9 12 -9 -4 0 -16 -2 -17 -17 -5 -9 8 -14 9 -10 3 4 -7 0 -14 -8 -18 -8 -3
-14 -2 -14 2 1 4 1 14 -1 22 -1 11 -3 10 -9 -4 -4 -11 -17 -20 -29 -21 -11 -1
-19 1 -17 5 2 3 0 12 -6 20 -7 12 -9 12 -9 -4 0 -16 -2 -17 -17 -5 -9 8 -14 9
-10 3 4 -7 0 -14 -8 -18 -8 -3 -14 -2 -14 2 1 4 1 14 -1 22 -1 11 -3 10 -9 -4
-4 -11 -17 -20 -29 -21 -11 -1 -19 1 -17 5 2 3 0 12 -6 20 -7 12 -9 12 -9 -4
0 -16 -2 -17 -17 -5 -9 8 -14 9 -10 3 4 -7 0 -14 -8 -18 -8 -3 -14 -2 -14 2 1
4 1 14 -1 22 -1 11 -3 10 -9 -4 -4 -11 -17 -20 -29 -21 -11 -1 -19 1 -17 5 2
3 0 12 -6 20 -7 12 -9 12 -9 -4 0 -16 -2 -17 -17 -5 -9 8 -14 9 -10 3 4 -7 0
-14 -8 -18 -8 -3 -14 -2 -14 2 1 4 1 14 -1 22 -1 11 -3 10 -9 -4 -4 -11 -17
-20 -29 -21 -11 -1 -19 1 -17 5 2 3 0 12 -6 20 -7 12 -9 12 -9 -4 0 -16 -2
-17 -17 -5 -9 8 -14 9 -10 3 4 -7 0 -14 -8 -18 -8 -3 -14 -2 -14 2 1 4 1 14
-1 22 -1 11 -3 10 -9 -4 -4 -11 -17 -20 -29 -21 -11 -1 -19 1 -17 5 2 3 0 12
-6 20 -7 12 -9 12 -9 -4 0 -16 -2 -17 -17 -5 -9 8 -14 9 -10 3 4 -7 0 -14 -8
-18 -8 -3 -14 -2 -14 2 1 4 1 14 -1 22 -1 11 -3 10 -9 -4 -4 -11 -17 -20 -29
-21 -11 -1 -19 1 -17 5 2 3 0 12 -6 20 -7 12 -9 12 -9 -4 0 -16 -2 -17 -17 -5
-9 8 -14 9 -10 3 4 -7 0 -14 -8 -18 -8 -3 -14 -2 -14 2 1 4 1 14 -1 22 -1 11
-3 10 -9 -4 -4 -11 -17 -20 -29 -21 -11 -1 -19 1 -17 5 2 3 0 12 -6 20 -7 12
-9 12 -9 -4 0 -16 -2 -17 -17 -5 -9 8 -14 9 -10 3 4 -7 0 -14 -8 -18 -8 -3
-14 -2 -14 2 1 4 1 14 -1 22 -1 11 -3 10 -9 -4 -4 -11 -17 -20 -29 -21 -11 -1
-19 1 -17 5 2 3 0 12 -6 20 -7 12 -9 12 -9 -4 0 -16 -2 -17 -17 -5 -9 8 -14 9
-10 3 4 -7 0 -14 -8 -18 -8 -3 -14 -2 -14 2 1 4 1 14 -1 22 -1 11 -3 10 -9 -4
-4 -11 -17 -20 -29 -21 -11 -1 -19 1 -17 5 2 3 0 12 -6 20 -7 12 -9 12 -9 -4
0 -16 -2 -17 -17 -5 -9 8 -14 9 -10 3 4 -7 0 -14 -8 -18 -8 -3 -14 -2 -14 2 1
4 1 14 -1 22 -1 11 -3 10 -9 -4 -4 -11 -17 -20 -29 -21 -11 -1 -19 1 -17 5 2
3 0 12 -6 20 -7 12 -9 12 -9 -4 0 -16 -2 -17 -17 -5 -9 8 -14 9 -10 3 4 -7 0
-14 -8 -18 -8 -3 -14 -2 -14 2 1 4 1 14 -1 22 -1 11 -3 10 -9 -4 -4 -11 -17
-20 -29 -21 -11 -1 -19 1 -17 5 2 3 0 12 -6 20 -7 12 -9 12 -9 -4 0 -16 -2
-17 -17 -5 -9 8 -14 9 -10 3 4 -7 0 -14 -8 -18 -8 -3 -14 -2 -14 2 1 4 1 14
-1 22 -1 11 -3 10 -9 -4 -4 -11 -17 -20 -29 -21 -11 -1 -19 1 -17 5 2 3 0 12
-6 20 -7 12 -9 12 -9 -4 0 -16 -2 -17 -17 -5 -9 8 -14 9 -10 3 4 -7 0 -15 -9
-18 -24 -9 -31 -7 -14 4 13 9 13 10 0 11 -8 0 -23 2 -32 4 -10 2 -18 -1 -18
-7 0 -6 7 -7 16 -4 8 3 12 2 9 -3 -3 -6 -14 -9 -25 -8 -10 1 -16 5 -13 10 3 4
-3 7 -13 5 -14 -2 -19 3 -18 20 0 12 -3 22 -8 22 -5 0 -6 5 -2 12 11 18 12 68
1 68 -6 0 -6 5 0 13 5 6 8 24 7 39 -3 25 -1 26 22 18 17 -7 23 -7 19 0 -3 6 1
10 10 10 10 0 13 5 9 12 -4 7 -3 8 5 4 6 -4 9 -11 6 -16 -8 -14 78 0 88 13 6
8 7 6 3 -5 -3 -10 -1 -18 4 -18 6 0 10 5 10 10 0 8 6 8 17 1 13 -7 23 -5 34 5
14 12 16 12 16 -1 0 -8 -5 -11 -10 -8 -6 4 -7 1 -2 -7 6 -10 10 -10 20 3 7 10
16 13 25 7 9 -6 20 -4 31 6 14 12 16 12 16 -1 0 -8 -5 -11 -10 -8 -6 4 -7 1
-2 -7 6 -10 11 -9 21 4 9 13 13 14 17 4 4 -9 6 -10 6 -1 1 7 7 10 15 7 8 -3
17 0 22 7 5 8 3 10 -6 4 -9 -5 -11 -4 -6 4 6 9 11 9 22 0 9 -7 14 -8 13 -3 -2
15 13 54 20 50 4 -3 7 4 8 14 1 11 -2 22 -8 25 -5 4 -9 15 -9 26 0 13 -4 18
-12 13 -7 -5 -9 -2 -5 9 4 12 2 14 -10 10 -11 -4 -14 -2 -9 5 4 7 -1 10 -14 7
-11 -2 -22 0 -25 6 -4 5 -12 9 -18 9 -8 0 -8 -3 2 -9 8 -5 -3 -8 -29 -6 -23 1
-47 9 -52 16 -7 10 -8 8 -5 -9 4 -17 2 -21 -6 -14 -19 14 -49 23 -42 12 3 -6
1 -10 -4 -10 -6 0 -11 6 -11 13 0 9 -3 8 -9 -2 -7 -11 -9 -11 -14 0 -3 8 -6 9
-6 2 -1 -6 -10 -9 -21 -6 -13 3 -20 0 -21 -8 -1 -8 -5 -3 -9 11 -7 21 -8 22
-9 5 -1 -17 -3 -17 -11 -5 -7 11 -10 11 -10 2 0 -7 -5 -10 -10 -7 -6 4 -8 11
-5 16 4 5 1 9 -4 9 -6 0 -11 -6 -11 -14 0 -16 -31 -16 -42 -1 -5 6 -8 6 -8 -2
0 -6 -9 -9 -20 -6 -13 3 -20 0 -21 -8 -1 -8 -5 -3 -9 11 -7 21 -8 22 -9 5 -1
-17 -3 -17 -11 -5 -7 11 -10 11 -10 2 0 -7 -5 -10 -10 -7 -6 4 -8 11 -5 16 4
5 1 9 -4 9 -6 0 -11 -6 -11 -12 0 -20 -178 -17 -192 3 -7 11 -9 9 -5 -9 4 -17
2 -21 -6 -14 -19 14 -49 23 -42 12 3 -6 1 -10 -4 -10 -6 0 -11 6 -11 13 0 7
-3 8 -8 2 -4 -6 -56 -10 -120 -10 -88 1 -115 4 -123 15 -8 12 -10 10 -6 -8 4
-17 2 -21 -6 -14 -19 14 -49 23 -42 12 3 -6 1 -10 -4 -10 -6 0 -11 6 -11 13 0
7 -3 8 -8 2 -4 -5 -26 -10 -50 -11 -27 -1 -38 2 -30 7 9 6 9 9 1 9 -7 0 -17
-8 -22 -17 -6 -10 -11 -13 -11 -7 0 7 -13 10 -30 9 -16 -1 -27 1 -25 6 3 4 14
6 25 4 11 -2 22 0 24 4 11 17 -47 4 -60 -14 -13 -18 -20 -10 -15 17 0 5 -4 8
-10 8 -6 0 -9 -6 -6 -14 4 -10 0 -12 -14 -9 -10 3 -27 2 -36 -2 -10 -5 -21 -7
-25 -7 -5 1 -7 -3 -5 -10 1 -7 -4 -12 -12 -13 -8 0 -15 -8 -17 -18 -1 -9 1
-15 5 -13 4 3 7 -4 7 -14 0 -15 -3 -17 -15 -7 -12 10 -13 9 -3 -9 6 -12 8 -25
4 -29 -4 -5 -1 -5 6 -1 8 5 12 0 12 -13 0 -11 5 -23 12 -27 7 -4 8 -3 4 4 -4
7 -2 12 3 12 6 0 11 -7 11 -16 0 -14 3 -14 15 -4 13 11 14 10 9 -5 -5 -13 -4
-16 4 -11 6 4 20 3 29 -2 22 -12 45 -4 36 11 -3 7 4 3 16 -7 17 -16 20 -16 16
-4 -4 9 -1 19 5 23 6 3 10 3 9 -2 -4 -21 2 -32 15 -27 8 3 18 0 22 -8 11 -17
13 -48 2 -42 -4 3 -8 0 -8 -5 0 -6 6 -11 13 -11 9 0 8 -3 -2 -9 -10 -6 -10
-10 -1 -16 8 -5 6 -11 -7 -22 -10 -8 -12 -12 -5 -8 11 6 13 -2 12 -52 0 -5 -6
-8 -13 -8 -6 -1 -23 -7 -36 -14 -13 -7 -21 -9 -17 -3 3 5 -1 13 -10 16 -8 3
-12 2 -9 -3 3 -5 1 -12 -5 -16 -5 -3 -10 2 -10 11 0 16 -1 16 -16 -2 -8 -10
-12 -13 -8 -5 5 11 2 13 -14 9 -12 -4 -20 -3 -17 2 3 4 -2 10 -9 13 -8 3 -17
1 -19 -6 -3 -9 -8 -9 -20 2 -9 7 -14 18 -10 25 4 6 -1 5 -10 -3 -12 -9 -17
-10 -17 -2 0 7 -5 9 -12 5 -8 -5 -9 -2 -5 9 3 9 3 16 -1 16 -19 -3 -33 2 -28
10 3 5 -2 8 -12 7 -11 -1 -18 7 -20 22 -3 20 -6 21 -20 10 -12 -10 -14 -10 -8
0 4 7 2 12 -4 12 -6 0 -9 3 -7 8 9 14 -13 53 -25 46 -9 -6 -9 -3 1 9 10 13 10
17 1 17 -9 0 -10 3 -1 13 11 14 5 27 -13 27 -6 0 -4 -5 4 -10 8 -5 10 -10 4
-10 -18 0 -24 13 -13 27 9 10 8 13 -2 13 -11 0 -11 2 1 10 8 5 11 10 5 10 -5
0 -10 20 -10 44 0 33 3 42 14 38 10 -4 13 -1 8 11 -3 9 -2 17 3 17 5 0 7 9 5
20 -2 11 3 26 11 35 8 8 16 18 17 22 1 4 5 7 10 6 4 -2 7 4 7 12 0 8 5 15 10
15 6 0 10 8 11 18 0 14 2 14 9 -3 8 -19 9 -19 9 3 1 13 5 20 11 17 6 -3 10 2
10 12 0 15 2 16 10 3 6 -9 10 -11 10 -3 0 7 7 10 15 6 10 -3 15 0 13 8 -2 8 3
13 10 12 6 -2 12 2 12 8 0 5 5 7 10 4 6 -4 17 -2 25 5 10 8 15 8 21 -1 5 -8 3
-9 -6 -4 -9 5 -11 4 -6 -4 6 -9 11 -9 22 0 8 6 14 9 14 6 0 -3 16 1 35 9 29
12 34 12 29 0 -6 -15 19 -17 32 -3 12 12 26 8 18 -6 -4 -6 3 -3 15 7 22 20 22
20 15 0 -6 -16 -5 -17 7 -6 14 13 33 17 25 4 -2 -4 4 -8 14 -8 14 0 16 4 9 12
-8 9 -5 11 10 7 12 -3 18 -10 14 -17 -4 -7 -1 -7 8 1 12 10 18 10 27 1 9 -9
17 -7 32 7 20 18 21 18 14 -1 -6 -16 -5 -17 7 -6 14 13 33 17 25 4 -2 -4 4 -8
14 -8 14 0 16 4 9 12 -8 9 -5 11 10 7 12 -3 18 -10 14 -17 -4 -7 -1 -7 8 1 12
10 18 10 27 1 9 -9 17 -7 32 7 20 18 21 18 14 -1 -6 -16 -5 -17 7 -6 14 13 33
17 25 4 -2 -4 4 -8 14 -8 14 0 16 4 9 12 -8 9 -5 11 10 7 12 -3 18 -10 14 -17
-4 -7 -1 -7 8 1 12 10 18 10 27 1 9 -9 17 -7 32 7 20 18 21 18 14 -1 -6 -16
-5 -17 7 -6 14 13 33 17 25 4 -2 -4 4 -8 14 -8 14 0 16 4 9 12 -8 9 -5 11 10
7 12 -3 18 -10 14 -17 -4 -7 -1 -7 8 1 12 10 18 10 27 1 9 -9 17 -7 32 7 17
15 20 16 15 3 -7 -17 16 -20 31 -5 12 11 26 8 18 -4 -3 -6 5 -3 20 6 25 17 26
17 20 -1 -6 -16 -5 -17 7 -6 16 15 63 16 53 1 -3 -6 6 -3 22 7 26 17 28 17 15
1 -13 -16 -11 -16 22 -2 31 13 36 13 31 1 -6 -15 19 -17 32 -3 12 11 26 8 18
-4 -3 -6 5 -3 20 6 25 17 26 17 20 -1 -6 -16 -5 -17 7 -6 16 15 63 16 53 1 -3
-6 6 -3 22 7 26 17 28 17 15 1 -13 -16 -11 -16 22 -2 31 13 36 13 31 1 -6 -15
19 -17 32 -3 12 11 26 8 18 -4 -3 -6 5 -3 20 6 25 17 26 17 20 -1 -6 -16 -5
-17 7 -6 16 15 63 16 53 1 -3 -6 6 -3 22 7 26 17 28 17 15 1 -13 -16 -11 -16
22 -2 31 13 36 13 31 1 -6 -15 19 -17 32 -3 12 11 26 8 18 -4 -3 -6 5 -3 20 6
25 17 26 17 20 -1 -6 -16 -5 -17 7 -7 16 16 63 17 53 2 -3 -6 6 -3 22 7 26 17
28 17 15 1 -13 -16 -11 -16 22 -2 31 13 36 13 31 1 -6 -15 19 -17 32 -3 12 11
26 8 18 -4 -3 -6 5 -3 20 6 25 17 26 17 20 -1 -6 -16 -5 -17 7 -7 16 16 63 17
53 2 -3 -6 6 -3 22 7 26 17 28 17 15 1 -13 -16 -11 -16 22 -2 31 13 36 13 31
1 -6 -15 19 -17 32 -3 12 12 26 8 18 -5 -4 -7 3 -4 15 6 22 20 22 20 15 0 -6
-16 -5 -17 7 -7 14 14 33 18 25 5 -2 -4 4 -8 14 -8 14 0 16 4 9 12 -8 9 -5 11
10 7 12 -3 18 -10 14 -17 -4 -7 -1 -7 8 1 12 10 18 10 27 1 9 -9 17 -7 32 7
20 18 21 18 14 -1 -6 -16 -5 -17 7 -7 14 14 33 18 25 5 -2 -4 4 -8 14 -8 14 0
16 4 9 12 -8 9 -5 11 10 7 12 -3 18 -10 14 -17 -4 -7 -1 -7 8 1 12 10 18 10
27 1 9 -9 17 -7 32 7 20 18 21 18 14 -1 -6 -16 -5 -17 7 -7 14 14 33 18 25 5
-2 -4 4 -8 14 -8 14 0 16 4 9 12 -8 9 -5 11 10 7 12 -3 18 -10 14 -17 -4 -7
-1 -7 8 1 12 10 18 10 27 1 9 -9 17 -7 32 7 20 18 21 18 14 -1 -6 -16 -5 -17
7 -7 14 14 33 18 25 5 -2 -4 4 -8 14 -8 14 0 16 4 9 12 -8 9 -5 11 10 7 12 -3
18 -10 14 -17 -4 -7 -1 -7 8 1 12 10 18 10 27 1 9 -9 17 -7 32 7 17 15 20 16
15 3 -7 -17 16 -20 31 -5 12 11 26 8 18 -4 -3 -6 5 -3 20 6 25 17 26 17 20 -1
-6 -16 -5 -17 7 -7 16 16 63 17 53 2 -3 -6 6 -3 22 7 26 17 28 17 15 1 -13
-16 -11 -16 22 -2 31 13 36 13 31 1 -6 -15 19 -17 32 -3 12 12 26 8 18 -6 -6
-8 -3 -8 9 2 9 7 24 11 32 7 9 -3 13 -2 10 3 -3 5 -1 12 5 16 5 3 10 0 10 -7
0 -8 5 -6 11 5 5 9 7 23 3 30 -6 9 -5 9 8 0 18 -15 29 -7 21 15 -5 11 -3 13 8
7 12 -8 12 -6 0 8 -12 15 -12 17 3 11 12 -5 15 -2 10 10 -9 22 -10 106 -2 106
4 0 5 12 2 26 -10 53 -11 104 -3 104 5 0 6 6 3 14 -3 8 -1 17 5 20 6 4 8 13 5
21 -4 8 -10 13 -14 10 -5 -3 -12 -1 -15 5 -4 6 -1 9 7 8 7 -2 12 3 10 10 -1 7
3 22 9 34 7 13 7 18 1 14 -7 -4 -11 14 -11 51 0 32 -2 75 -4 96 -2 20 0 37 4
37 5 0 6 6 3 14 -3 8 -1 17 5 20 6 4 8 13 5 21 -4 8 -10 13 -14 10 -5 -3 -12
-1 -15 5 -4 6 -1 9 7 8 7 -2 12 3 10 10 -1 7 3 22 9 34 7 13 7 18 1 14 -7 -4
-11 14 -11 51 0 32 -2 75 -4 96 -2 20 0 37 4 37 5 0 6 6 3 14 -3 8 -1 17 5 20
6 4 8 13 5 21 -4 8 -10 13 -14 10 -5 -3 -12 -1 -15 5 -4 6 -1 9 7 8 7 -2 12 3
10 10 -1 7 3 22 9 34 7 13 7 18 1 14 -7 -4 -11 14 -11 51 0 32 -2 75 -4 96 -2
20 0 37 4 37 5 0 6 6 3 14 -3 8 -1 17 5 20 6 4 8 13 5 21 -4 8 -10 13 -14 10
-5 -3 -12 -1 -15 5 -4 6 -1 9 7 8 7 -2 12 3 10 10 -1 7 3 22 9 34 7 13 7 18 1
14 -7 -4 -11 14 -11 51 0 32 -2 75 -4 96 -2 20 0 37 4 37 5 0 6 6 3 14 -3 8
-1 17 5 20 6 4 8 13 5 21 -4 8 -10 13 -14 10 -5 -3 -12 -1 -15 5 -4 6 -1 9 7
8 7 -2 12 3 10 10 -1 7 3 22 9 34 7 13 7 18 1 14 -7 -4 -11 14 -11 51 0 32 -2
75 -4 96 -2 20 0 37 4 37 5 0 6 6 3 14 -3 8 -1 17 5 20 6 4 8 13 5 21 -4 8
-10 13 -14 10 -5 -3 -12 -1 -15 5 -4 6 -1 9 7 8 7 -2 12 3 10 10 -1 7 3 22 9
34 7 13 7 18 1 14 -7 -4 -11 14 -11 51 0 32 -2 75 -4 96 -2 20 0 37 4 37 5 0
6 6 3 14 -3 8 -1 17 5 20 6 4 8 13 5 21 -4 8 -10 13 -14 10 -5 -3 -12 -1 -15
5 -4 6 -1 9 7 8 7 -2 12 3 10 10 -1 7 3 22 9 34 7 13 7 18 1 14 -7 -4 -11 14
-11 51 0 32 -2 75 -4 96 -2 20 0 37 4 37 5 0 6 6 3 14 -3 8 -1 17 5 20 6 4 8
13 5 21 -4 8 -10 13 -14 10 -5 -3 -12 -1 -15 5 -4 6 -1 9 7 8 7 -2 12 3 10 10
-1 7 3 22 9 34 7 13 7 18 1 14 -7 -4 -11 14 -11 51 0 32 -2 75 -4 96 -2 20 0
37 4 37 5 0 6 6 3 14 -3 8 -1 17 5 20 6 4 8 13 5 21 -4 8 -10 13 -14 10 -5 -3
-12 -1 -15 5 -4 6 -1 9 7 8 7 -2 12 3 10 10 -1 7 3 22 9 34 7 13 7 18 1 14 -7
-4 -11 14 -11 51 0 32 -2 75 -4 96 -2 20 0 37 4 37 5 0 6 6 3 14 -3 8 -1 17 5
20 6 4 8 13 5 21 -4 8 -10 13 -14 10 -5 -3 -12 -1 -15 5 -4 6 -1 9 7 8 7 -2
12 3 10 10 -1 7 3 22 9 34 7 13 7 18 1 14 -7 -4 -11 14 -11 51 0 32 -2 75 -4
96 -2 20 0 37 4 37 5 0 6 6 3 14 -3 8 -1 17 5 20 6 4 8 13 5 21 -4 8 -10 13
-14 10 -5 -3 -12 -1 -15 5 -4 6 -1 9 7 8 7 -2 12 3 10 10 -1 7 3 22 9 34 7 13
7 18 1 14 -7 -4 -11 14 -11 51 0 32 -2 75 -4 96 -2 20 0 37 4 37 5 0 6 6 3 14
-3 8 -1 17 5 20 6 4 8 13 5 21 -4 8 -10 13 -14 10 -5 -3 -12 -1 -15 5 -4 6 -1
9 7 8 7 -2 12 3 10 10 -1 7 3 22 9 34 8 15 8 19 -1 13 -8 -5 -11 2 -8 24 2 20
-3 36 -12 42 -11 8 -9 9 10 5 14 -3 19 -3 13 0 -7 3 -13 17 -13 30 0 14 -4 22
-10 19 -6 -4 -10 5 -10 20 0 15 -4 24 -10 20 -6 -3 -10 4 -10 17 0 18 -2 20
-10 8 -8 -13 -14 -8 -12 10 0 3 -15 5 -34 5 -19 -1 -34 1 -34 4 0 3 -22 6 -49
6 -27 1 -48 -3 -45 -6 2 -4 0 -10 -6 -14 -5 -3 -10 2 -10 12 0 15 -2 16 -10 3
-8 -12 -10 -12 -10 -1 0 11 -3 11 -17 0 -9 -8 -14 -9 -10 -3 3 6 0 11 -8 11
-8 0 -12 -4 -9 -8 2 -4 0 -10 -6 -14 -5 -3 -10 2 -10 12 0 15 -2 16 -10 3 -8
-12 -10 -12 -10 -1 0 11 -3 11 -17 0 -9 -8 -14 -9 -10 -3 3 6 0 11 -8 11 -8 0
-12 -4 -9 -8 2 -4 0 -10 -6 -14 -5 -3 -10 2 -10 12 0 15 -2 16 -10 3 -9 -13
-10 -13 -10 0 0 13 -1 13 -10 0 -7 -11 -10 -11 -10 -2 0 8 -5 10 -12 5 -7 -4
-21 -6 -32 -4 -10 1 -16 -1 -13 -7 4 -5 0 -9 -8 -9 -8 0 -12 4 -10 8 8 12 -22
18 -34 6 -8 -8 -11 -8 -11 2 0 7 -5 9 -12 4 -7 -4 -21 -6 -32 -4 -10 1 -16 -1
-13 -7 4 -5 0 -9 -8 -9 -8 0 -12 4 -10 8 8 12 -22 18 -34 6 -8 -8 -11 -7 -11
3 0 11 -3 11 -12 2 -16 -16 -31 -15 -22 1 5 8 2 8 -9 -2 -14 -11 -17 -11 -17
0 0 11 -2 11 -10 -1 -7 -11 -10 -11 -10 -2 0 8 -5 10 -12 5 -7 -4 -21 -6 -32
-4 -10 1 -16 -1 -13 -7 4 -5 0 -9 -8 -9 -8 0 -12 4 -10 8 8 12 -22 18 -34 6
-8 -8 -11 -8 -11 2 0 7 -5 9 -12 4 -7 -4 -21 -6 -32 -4 -10 1 -16 -1 -13 -7 4
-5 0 -9 -8 -9 -8 0 -12 4 -10 8 8 12 -22 18 -34 6 -8 -8 -11 -7 -11 3 0 11 -3
11 -12 2 -16 -16 -31 -15 -22 1 5 8 2 8 -9 -2 -13 -10 -17 -10 -17 -1 0 9 -4
9 -17 -1 -9 -8 -14 -9 -10 -3 3 6 0 11 -8 11 -8 0 -12 -4 -9 -8 2 -4 0 -10 -6
-14 -5 -3 -10 2 -10 12 0 15 -2 16 -10 3 -8 -12 -10 -12 -10 -1 0 11 -3 11
-17 0 -9 -8 -14 -9 -10 -3 3 6 0 11 -8 11 -8 0 -12 -4 -9 -8 2 -4 0 -10 -6
-14 -5 -3 -10 2 -10 12 0 15 -2 16 -10 3 -8 -12 -10 -12 -10 -1 0 11 -3 11
-17 0 -9 -8 -14 -9 -10 -3 3 6 0 11 -8 11 -8 0 -12 -4 -9 -8 2 -4 0 -10 -6
-14 -5 -3 -10 2 -10 12 0 15 -2 16 -10 3 -8 -12 -10 -12 -10 -1 0 11 -3 11
-17 0 -9 -8 -14 -9 -10 -3 3 6 0 11 -8 11 -8 0 -12 -4 -9 -8 2 -4 0 -10 -6
-14 -5 -3 -10 2 -10 12 0 15 -2 16 -10 3 -5 -8 -10 -10 -10 -4 0 12 -29 12
-48 0 -7 -4 -12 -2 -12 4 0 6 -5 8 -12 3 -7 -4 -21 -6 -32 -4 -10 1 -16 -1
-13 -7 4 -5 0 -9 -8 -9 -8 0 -12 4 -10 8 8 12 -22 18 -34 6 -8 -8 -11 -8 -11
2 0 7 -5 9 -12 4 -7 -4 -21 -6 -32 -4 -10 1 -16 -1 -13 -7 4 -5 0 -9 -8 -9 -8
0 -12 4 -10 8 8 12 -22 18 -34 6 -8 -8 -11 -8 -11 2 0 7 -5 9 -12 4 -7 -4 -21
-6 -32 -4 -10 1 -16 -1 -13 -7 4 -5 0 -9 -8 -9 -8 0 -12 4 -10 8 8 12 -22 18
-34 6 -8 -8 -11 -8 -11 2 0 7 -5 9 -12 4 -7 -4 -21 -6 -32 -4 -10 1 -16 -1
-13 -7 4 -5 0 -9 -8 -9 -8 0 -12 4 -10 8 8 12 -22 18 -34 6 -8 -8 -11 -8 -11
2 0 10 -3 11 -13 2 -8 -6 -16 -8 -20 -5 -8 9 -117 12 -111 3 2 -4 0 -10 -6
-14 -5 -3 -10 2 -10 12 0 15 -2 16 -10 3 -8 -12 -10 -12 -10 -1 0 11 -3 11
-17 0 -9 -8 -14 -9 -10 -3 3 6 0 11 -8 11 -8 0 -12 -4 -9 -8 2 -4 0 -10 -6
-14 -5 -3 -10 2 -10 12 0 15 -2 16 -10 3 -8 -12 -10 -12 -10 -1 0 11 -3 11
-17 0 -9 -8 -14 -9 -10 -3 3 6 0 11 -8 11 -8 0 -12 -4 -9 -8 2 -4 0 -10 -6
-14 -5 -3 -10 2 -10 12 0 15 -2 16 -10 3 -8 -12 -10 -12 -10 -1 0 11 -3 11
-17 0 -9 -8 -14 -9 -10 -3 3 6 0 11 -8 11 -8 0 -12 -4 -9 -8 2 -4 0 -10 -6
-14 -5 -3 -10 2 -10 12 0 15 -2 16 -10 3 -9 -13 -10 -13 -10 0 0 13 -1 13 -10
0 -7 -11 -10 -11 -10 -2 0 8 -5 10 -12 5 -7 -4 -21 -6 -32 -4 -10 1 -16 -1
-13 -7 4 -5 0 -9 -8 -9 -8 0 -12 4 -10 8 8 12 -22 18 -34 6 -8 -8 -11 -8 -11
2 0 7 -5 9 -12 4 -7 -4 -21 -6 -32 -4 -10 1 -16 -1 -13 -7 4 -5 0 -9 -8 -9 -8
0 -12 4 -10 8 8 12 -22 18 -34 6 -8 -8 -11 -7 -11 3 0 11 -3 11 -12 2 -16 -16
-31 -15 -22 1 5 8 2 8 -9 -2 -14 -11 -17 -11 -17 0 0 11 -2 11 -10 -1 -7 -11
-10 -11 -10 -2 0 8 -5 10 -12 5 -7 -4 -21 -6 -32 -4 -10 1 -16 -1 -13 -7 4 -5
0 -9 -8 -9 -8 0 -12 4 -10 8 8 12 -22 18 -34 6 -8 -8 -11 -8 -11 2 0 7 -5 9
-12 4 -7 -4 -21 -6 -32 -4 -10 1 -16 -1 -13 -7 4 -5 0 -9 -8 -9 -8 0 -12 4
-10 8 8 12 -22 18 -34 6 -8 -8 -11 -7 -11 3 0 11 -3 11 -12 2 -16 -16 -31 -15
-22 1 5 8 2 8 -9 -2 -13 -10 -17 -10 -17 -1 0 9 -4 9 -17 -1 -9 -8 -14 -9 -10
-3 3 6 0 11 -8 11 -8 0 -12 -4 -9 -8 2 -4 0 -10 -6 -14 -5 -3 -10 2 -10 12 0
15 -2 16 -10 3 -8 -12 -10 -12 -10 -1 0 11 -3 11 -17 0 -9 -8 -14 -9 -10 -2 5
7 0 9 -13 6 -11 -3 -17 -9 -14 -14 3 -5 -2 -6 -10 -3 -9 3 -13 10 -10 15 7 11
3 11 -16 -1z m155 -252 c-3 6 -2 12 2 12 5 0 15 -6 22 -12 11 -10 13 -10 7 0
-4 6 -3 12 1 12 5 0 15 -6 22 -12 7 -7 12 -8 11 -3 -5 22 1 26 17 10 16 -16
17 -16 30 1 12 16 18 12 14 -9 -1 -5 4 -5 11 0 18 11 31 11 47 -1 11 -8 13 -8
7 2 -4 6 -3 12 1 12 5 0 15 -6 22 -12 7 -7 12 -8 11 -3 -5 22 1 26 17 10 16
-16 17 -16 30 1 12 16 18 12 14 -9 -1 -5 4 -5 11 0 18 11 31 11 47 -1 11 -8
13 -8 7 2 -4 6 -3 12 1 12 5 0 15 -6 22 -12 7 -7 12 -8 11 -3 -5 22 1 26 17
10 16 -16 17 -16 30 1 12 16 18 12 14 -10 -1 -5 4 -5 11 1 17 14 29 14 47 0
12 -9 13 -9 7 1 -4 6 -3 12 1 12 5 0 15 -6 22 -12 7 -7 12 -8 11 -3 -5 22 1
26 17 10 16 -16 17 -16 30 1 12 17 18 12 13 -11 -1 -5 4 -4 11 2 10 10 16 10
28 0 10 -8 12 -8 8 -1 -4 7 0 15 9 18 12 5 15 2 10 -11 -5 -15 -4 -15 9 1 8
11 15 14 15 8 0 -15 35 -15 63 0 21 11 21 10 7 -8 -15 -18 -14 -18 12 -1 26
16 28 16 37 -1 6 -9 11 -12 11 -5 0 11 42 9 63 -4 6 -3 7 -1 4 4 -4 6 0 14 9
17 12 5 15 2 10 -11 -5 -15 -4 -15 9 1 8 11 15 14 15 8 0 -15 35 -15 63 0 21
11 21 10 7 -8 -15 -18 -14 -18 12 -1 26 16 28 16 37 -1 6 -9 11 -12 11 -5 0
11 42 9 63 -4 6 -3 7 -1 4 4 -4 6 0 14 9 17 12 5 15 2 10 -11 -5 -15 -4 -15 9
1 8 11 15 14 15 8 0 -15 35 -15 63 0 21 11 21 10 7 -8 -15 -18 -14 -18 12 -1
26 16 28 16 37 -1 6 -9 11 -12 11 -5 0 11 42 9 63 -4 6 -3 7 -1 4 4 -4 6 0 14
9 17 12 5 15 2 10 -11 -5 -15 -4 -15 9 1 8 11 15 14 15 8 0 -15 35 -15 63 0
21 11 21 10 7 -8 -15 -18 -14 -18 12 -1 26 16 28 16 37 -1 6 -9 11 -12 11 -5
0 11 42 9 63 -4 6 -3 7 -1 4 4 -4 6 0 14 9 17 12 5 15 2 10 -11 -5 -15 -4 -15
9 1 8 11 15 14 15 8 0 -15 35 -15 63 0 21 11 21 10 7 -8 -15 -18 -14 -18 12
-1 26 16 28 16 37 -1 6 -9 11 -12 11 -5 0 11 42 9 63 -4 6 -3 7 -1 4 4 -4 6 0
14 9 17 12 5 15 2 10 -11 -5 -15 -4 -15 9 1 8 11 15 14 15 8 0 -7 7 -12 16
-12 9 0 12 5 8 13 -4 6 3 3 16 -8 13 -11 20 -14 16 -7 -4 6 -3 12 1 12 5 0 15
-6 22 -12 7 -7 12 -8 11 -3 -5 22 1 26 17 10 16 -16 17 -16 30 1 12 16 18 12
14 -10 -1 -5 4 -5 11 1 22 18 24 19 43 3 11 -9 16 -10 11 -2 -4 6 -3 12 1 12
5 0 15 -6 22 -12 7 -7 12 -8 11 -3 -5 22 1 26 17 10 16 -16 17 -16 30 1 12 16
18 12 14 -10 -1 -5 4 -5 11 1 17 14 29 14 47 0 12 -9 13 -9 7 1 -4 6 -3 12 1
12 5 0 15 -6 22 -12 7 -7 12 -8 11 -3 -5 22 1 26 17 10 16 -16 17 -16 30 1 12
16 18 12 14 -10 -1 -5 4 -5 11 1 22 18 24 19 43 3 11 -9 16 -10 11 -2 -4 6 -3
12 1 12 5 0 15 -6 22 -12 7 -7 12 -8 11 -3 -5 22 1 26 17 10 16 -16 17 -16 30
1 12 17 18 12 13 -11 -1 -5 4 -4 11 2 10 10 16 10 28 0 10 -8 12 -8 8 -1 -4 7
0 15 9 18 12 5 15 2 10 -11 -5 -15 -4 -15 9 1 8 11 15 14 15 8 0 -15 35 -15
63 0 21 11 21 10 7 -8 -15 -18 -14 -18 14 0 16 10 25 12 21 5 -6 -9 -2 -11 13
-7 12 3 21 3 20 -1 0 -3 0 -8 2 -11 8 -22 8 -50 -1 -50 -5 0 -7 -5 -3 -12 11
-18 13 -68 2 -68 -5 0 -6 -5 -2 -12 12 -19 13 -68 1 -61 -6 4 -7 1 -2 -8 15
-23 13 -68 -2 -62 -9 4 -11 0 -7 -11 3 -9 10 -14 14 -11 5 3 7 -3 5 -12 -1
-10 2 -25 8 -33 9 -12 9 -13 -3 -2 -24 20 -31 13 -14 -13 13 -20 13 -25 3 -25
-11 0 -11 -2 1 -10 13 -9 13 -10 0 -10 -13 0 -13 -1 0 -10 13 -8 12 -10 -5
-11 -17 -1 -17 -2 -2 -6 18 -5 24 -33 6 -33 -5 0 -7 -5 -4 -10 12 -20 15 -60
5 -60 -6 0 -8 -5 -4 -12 11 -18 13 -68 2 -68 -5 0 -6 -5 -2 -12 11 -18 13 -68
2 -68 -5 0 -6 -5 -2 -12 11 -18 13 -68 2 -68 -5 0 -6 -5 -2 -12 12 -19 13 -68
1 -61 -6 4 -7 1 -2 -8 15 -23 13 -68 -2 -62 -9 4 -11 0 -7 -11 3 -9 10 -14 14
-11 5 3 7 -3 5 -12 -1 -10 2 -25 8 -33 9 -12 9 -13 -3 -2 -24 20 -31 13 -14
-13 13 -20 13 -25 3 -25 -11 0 -11 -2 1 -10 13 -9 13 -10 0 -10 -13 0 -13 -1
0 -10 13 -8 12 -10 -5 -11 -17 -1 -17 -2 -2 -6 18 -5 24 -33 6 -33 -5 0 -7 -5
-4 -10 12 -20 15 -60 5 -60 -6 0 -8 -5 -4 -12 11 -18 13 -68 2 -68 -5 0 -6 -5
-2 -12 11 -18 13 -68 2 -68 -5 0 -6 -5 -2 -12 11 -18 13 -68 2 -68 -5 0 -6 -5
-2 -12 12 -19 13 -68 1 -61 -6 4 -7 1 -2 -8 15 -23 13 -68 -2 -62 -9 4 -11 0
-7 -11 3 -9 10 -14 14 -11 5 3 7 -3 5 -12 -1 -10 2 -25 8 -33 9 -12 9 -13 -3
-2 -24 20 -31 13 -14 -13 13 -20 13 -25 3 -25 -11 0 -11 -2 1 -10 13 -9 13
-10 0 -10 -13 0 -13 -1 0 -10 13 -8 12 -10 -5 -11 -17 -1 -17 -2 -2 -6 18 -5
24 -33 6 -33 -5 0 -7 -5 -4 -10 12 -20 15 -60 5 -60 -6 0 -8 -5 -4 -12 11 -18
13 -68 2 -68 -5 0 -6 -5 -2 -12 11 -18 13 -68 2 -68 -5 0 -6 -5 -2 -12 11 -18
13 -68 2 -68 -5 0 -6 -5 -2 -12 12 -19 13 -68 1 -61 -6 4 -7 1 -2 -8 15 -23
13 -68 -2 -62 -9 4 -11 0 -7 -11 3 -9 10 -14 14 -11 5 3 7 -3 5 -12 -1 -10 2
-25 8 -33 9 -12 9 -13 -3 -2 -24 20 -31 13 -14 -13 13 -20 13 -25 3 -25 -11 0
-11 -2 1 -10 13 -9 13 -10 0 -10 -13 0 -13 -1 0 -10 13 -8 12 -10 -5 -11 -17
-1 -17 -2 -2 -6 18 -5 24 -33 6 -33 -5 0 -7 -5 -4 -10 12 -20 15 -60 5 -60 -6
0 -8 -5 -4 -12 11 -18 13 -68 2 -68 -5 0 -6 -5 -2 -12 11 -18 13 -68 2 -68 -5
0 -6 -5 -2 -12 11 -18 13 -68 2 -68 -5 0 -6 -5 -2 -12 12 -19 13 -68 1 -61 -6
4 -7 1 -2 -8 15 -23 13 -68 -2 -62 -9 4 -11 0 -7 -11 3 -9 10 -14 14 -11 5 3
7 -3 5 -12 -1 -10 2 -25 8 -33 9 -12 9 -13 -3 -2 -24 20 -31 13 -14 -13 13
-20 13 -25 3 -25 -11 0 -11 -2 1 -10 13 -9 13 -10 0 -10 -13 0 -13 -1 0 -10
13 -8 12 -10 -5 -11 -17 -1 -17 -2 -2 -6 18 -5 24 -33 6 -33 -5 0 -7 -5 -4
-10 12 -20 15 -60 5 -60 -6 0 -8 -5 -4 -12 11 -18 13 -68 2 -68 -5 0 -6 -5 -2
-12 11 -18 13 -68 2 -68 -5 0 -6 -5 -2 -12 11 -18 13 -68 2 -68 -5 0 -6 -5 -2
-12 12 -19 13 -68 1 -61 -6 4 -7 1 -2 -8 15 -23 13 -68 -2 -62 -9 4 -11 0 -7
-11 3 -9 10 -14 14 -11 5 3 7 -3 5 -12 -1 -10 2 -25 8 -33 9 -12 9 -13 -3 -2
-24 20 -31 13 -14 -13 13 -20 13 -25 3 -25 -11 0 -11 -2 1 -10 13 -9 13 -10 0
-10 -13 0 -13 -1 0 -10 12 -8 12 -10 -5 -11 -15 0 -16 -2 -5 -7 23 -11 22 -44
0 -37 -13 4 -22 -1 -30 -17 -10 -21 -10 -22 4 -4 9 10 20 15 27 10 13 -8 -19
-25 -53 -29 -21 -2 -24 11 -6 18 7 3 3 4 -10 4 -12 -1 -21 -6 -18 -12 2 -7 -2
-12 -10 -12 -8 0 -13 6 -10 13 4 10 -1 11 -20 4 -30 -12 -37 -12 -31 -2 3 4
-5 7 -18 7 -13 0 -21 -3 -19 -6 2 -4 -3 -9 -11 -13 -8 -3 -17 0 -21 6 -4 7 -3
8 4 4 8 -5 10 -1 5 9 -4 13 -8 14 -14 4 -6 -10 -11 -10 -22 -1 -14 12 -27 7
-27 -12 0 -6 4 -5 9 3 6 9 11 10 15 2 4 -6 4 -11 -1 -12 -4 0 -18 -2 -30 -3
-24 -3 -31 9 -10 17 6 3 2 4 -11 4 -12 -1 -21 -6 -18 -12 2 -7 -2 -12 -10 -12
-8 0 -13 6 -10 13 4 10 -1 11 -20 4 -32 -12 -37 -12 -29 0 3 6 -1 7 -9 4 -9
-3 -16 -11 -16 -18 0 -6 -4 -5 -9 4 -6 8 -7 19 -3 25 3 5 -2 4 -12 -4 -14 -12
-21 -13 -38 -2 -16 10 -18 10 -12 0 5 -9 2 -10 -10 -6 -9 4 -15 3 -12 -2 3 -5
-1 -11 -9 -15 -8 -3 -17 0 -21 6 -4 7 -3 8 4 4 8 -5 10 -1 5 9 -4 13 -8 14
-14 4 -6 -10 -11 -10 -22 -1 -14 12 -27 7 -27 -12 0 -6 4 -5 9 3 6 9 11 10 15
2 4 -6 4 -11 -1 -12 -4 0 -18 -2 -30 -3 -24 -3 -31 9 -10 17 6 3 2 4 -11 4
-12 -1 -21 -6 -18 -12 2 -7 -2 -12 -10 -12 -8 0 -13 6 -10 13 4 10 -1 11 -20
4 -32 -12 -37 -12 -29 0 3 6 -1 7 -9 4 -9 -3 -16 -11 -16 -18 0 -6 -4 -5 -9 4
-6 8 -7 19 -3 25 3 5 -2 4 -12 -4 -13 -11 -22 -12 -35 -4 -14 9 -18 8 -18 -3
0 -7 4 -11 8 -8 4 2 10 0 13 -5 11 -18 -27 -4 -42 15 -14 18 -14 18 -9 -3 4
-20 3 -21 -14 -12 -10 5 -19 15 -20 22 0 9 -2 9 -6 -1 -2 -6 -10 -9 -16 -5 -6
4 -8 0 -4 -10 6 -16 4 -15 -20 0 -26 17 -27 17 -20 -1 7 -16 5 -17 -9 -5 -18
15 -47 22 -39 9 3 -4 -2 -10 -10 -14 -8 -3 -17 0 -21 6 -4 7 -3 8 4 4 8 -5 10
-1 5 9 -4 13 -8 14 -14 4 -6 -10 -11 -10 -22 -1 -14 12 -27 7 -27 -12 0 -6 4
-5 9 3 6 9 11 10 15 2 4 -6 4 -11 -1 -12 -4 0 -18 -2 -30 -3 -24 -3 -31 9 -11
17 7 3 3 4 -10 4 -12 -1 -21 -6 -18 -12 2 -7 -2 -12 -10 -12 -8 0 -13 6 -10
13 4 10 -1 11 -20 4 -32 -12 -37 -12 -29 0 3 6 -1 7 -9 4 -9 -3 -16 -11 -16
-18 0 -6 -4 -5 -9 4 -6 8 -7 19 -3 25 3 5 -2 4 -12 -4 -13 -11 -22 -12 -35 -4
-14 9 -18 8 -18 -3 0 -7 4 -11 8 -8 4 2 10 0 13 -5 11 -18 -27 -4 -42 15 -14
18 -14 18 -9 -3 4 -20 3 -21 -14 -12 -10 5 -19 15 -20 22 0 9 -2 9 -6 -1 -2
-6 -10 -9 -16 -5 -6 4 -8 0 -4 -10 6 -16 4 -15 -20 0 -26 17 -27 17 -20 -1 8
-20 8 -20 -14 0 -22 19 -22 19 -16 -1 6 -17 3 -16 -15 5 -20 24 -21 24 -16 3
5 -20 4 -21 -13 -12 -10 5 -19 15 -20 22 0 9 -2 9 -6 -1 -2 -6 -10 -9 -16 -5
-6 4 -8 0 -4 -10 6 -16 4 -15 -20 0 -26 17 -27 17 -20 -1 7 -16 5 -17 -9 -5
-18 15 -47 22 -39 9 3 -4 -2 -10 -10 -14 -8 -3 -17 0 -21 6 -4 7 -3 8 4 4 8
-5 10 -1 5 9 -4 13 -8 14 -14 4 -6 -10 -11 -10 -22 -1 -14 12 -27 7 -27 -12 0
-6 4 -5 9 3 6 9 11 10 15 2 4 -6 4 -11 -1 -12 -4 0 -18 -2 -30 -3 -24 -3 -31
9 -10 17 6 3 2 4 -11 4 -12 -1 -21 -6 -18 -12 2 -7 -2 -12 -10 -12 -8 0 -13 6
-10 13 4 10 -1 11 -20 4 -32 -12 -37 -12 -29 0 3 6 -1 7 -9 4 -9 -3 -16 -11
-16 -18 0 -6 -4 -5 -9 4 -6 8 -7 18 -4 23 3 5 -4 3 -15 -4 -16 -10 -24 -10
-35 -1 -11 9 -14 9 -14 -3 0 -8 4 -12 8 -9 4 2 10 0 13 -5 11 -18 -27 -4 -42
15 -14 18 -14 18 -9 -3 4 -20 3 -21 -14 -12 -10 5 -19 15 -20 22 0 9 -2 9 -6
-1 -2 -6 -10 -9 -16 -5 -6 4 -8 0 -4 -10 6 -16 4 -15 -20 0 -26 17 -27 17 -20
-1 7 -16 5 -17 -9 -5 -18 15 -47 22 -39 9 3 -4 -2 -10 -10 -14 -8 -3 -17 0
-21 6 -4 7 -3 8 4 4 8 -5 10 -1 5 9 -4 13 -8 14 -14 4 -6 -10 -11 -10 -22 -1
-14 12 -27 7 -27 -12 0 -6 4 -5 9 3 6 9 11 10 15 2 4 -6 4 -11 -1 -12 -4 0
-18 -2 -30 -3 -24 -3 -31 9 -10 17 6 3 2 4 -11 4 -12 -1 -21 -6 -18 -12 2 -7
-2 -12 -10 -12 -8 0 -13 6 -10 13 4 10 -1 11 -20 4 -32 -12 -37 -12 -29 0 3 6
-1 7 -9 4 -9 -3 -16 -11 -16 -18 0 -6 -4 -5 -9 4 -6 8 -7 19 -3 25 3 5 -2 4
-12 -4 -14 -12 -21 -13 -38 -2 -16 10 -18 10 -12 0 5 -9 2 -10 -10 -6 -9 4
-15 3 -12 -2 3 -5 -1 -11 -9 -15 -8 -3 -17 0 -21 6 -4 7 -3 8 4 4 8 -5 10 -1
5 9 -4 13 -8 14 -14 4 -6 -10 -11 -10 -22 -1 -14 12 -27 7 -27 -12 0 -6 4 -5
9 3 6 9 11 10 15 2 4 -6 4 -11 -1 -12 -4 0 -18 -2 -30 -3 -24 -3 -31 9 -10 17
6 3 2 4 -11 4 -12 -1 -21 -6 -18 -12 2 -7 -2 -12 -10 -12 -8 0 -13 6 -10 13 4
10 -1 11 -20 4 -32 -12 -37 -12 -29 0 3 6 -1 7 -9 4 -9 -3 -16 -11 -16 -18 0
-6 -4 -5 -9 4 -6 8 -7 18 -4 23 3 5 -4 3 -15 -4 -16 -10 -24 -10 -35 -1 -11 9
-14 9 -14 -3 0 -8 4 -12 8 -9 4 2 10 1 13 -4 2 -4 -8 -8 -23 -7 -15 0 -28 5
-28 12 0 7 5 9 10 6 6 -3 7 -1 3 5 -4 6 -13 9 -20 6 -8 -3 -16 4 -19 15 -3 12
0 21 6 21 8 0 8 3 2 8 -13 9 -18 35 -5 27 5 -3 10 1 10 9 0 10 -6 13 -17 10
-15 -5 -16 -4 -3 5 12 8 13 14 3 30 -9 15 -10 22 -1 27 7 5 8 3 3 -6 -5 -9 -4
-11 4 -6 7 5 9 12 3 19 -5 7 -8 30 -7 52 1 22 -3 43 -9 47 -7 5 -4 8 7 8 9 0
17 5 17 11 0 5 -4 7 -10 4 -5 -3 -10 -1 -10 4 0 6 8 11 18 12 14 0 14 2 -3 9
-13 6 -15 9 -5 9 13 1 13 2 0 11 -12 8 -12 10 5 11 11 0 14 3 8 6 -7 2 -13 9
-13 14 0 6 6 7 13 3 8 -5 8 -2 -2 9 -7 9 -10 17 -6 17 4 0 2 7 -5 15 -7 8 -9
15 -5 15 4 0 1 8 -6 17 -8 9 -9 14 -3 10 9 -5 11 82 10 331 -1 288 1 339 14
350 8 8 10 11 5 8 -6 -2 -17 -1 -25 5 -13 7 -12 9 3 9 9 0 17 5 17 11 0 5 -4
7 -10 4 -5 -3 -10 -1 -10 4 0 6 8 11 18 12 14 0 14 2 -3 9 -13 6 -15 9 -5 9
13 1 13 2 0 11 -12 8 -12 10 5 11 11 0 14 3 8 6 -7 2 -13 9 -13 14 0 6 6 7 13
3 8 -5 8 -2 -2 9 -7 9 -10 17 -6 17 4 0 3 6 -2 13 -6 6 -9 30 -8 52 1 22 -3
43 -9 47 -7 5 -4 8 7 8 9 0 17 5 17 11 0 5 -4 7 -10 4 -5 -3 -10 -1 -10 4 0 6
8 11 18 12 14 0 14 2 -3 9 -13 6 -15 9 -5 9 13 1 13 2 0 11 -12 8 -12 10 5 11
11 0 14 3 8 6 -7 2 -13 9 -13 14 0 6 6 7 13 3 8 -5 8 -2 -2 9 -7 9 -10 17 -6
17 4 0 3 6 -2 13 -6 6 -9 30 -8 52 1 22 -3 43 -9 47 -7 5 -4 8 7 8 9 0 17 5
17 11 0 5 -4 7 -10 4 -5 -3 -10 -1 -10 4 0 6 8 11 18 12 14 0 14 2 -3 9 -13 6
-15 9 -5 9 13 1 13 2 0 11 -12 8 -12 10 5 11 11 0 14 3 8 6 -7 2 -13 9 -13 14
0 6 6 7 13 3 8 -5 8 -2 -2 9 -7 9 -10 17 -6 17 4 0 3 6 -2 13 -6 6 -9 30 -8
52 1 22 -3 43 -9 47 -7 5 -4 8 7 8 9 0 17 5 17 11 0 5 -4 7 -10 4 -5 -3 -10
-1 -10 4 0 6 8 11 18 12 14 0 14 2 -3 9 -13 6 -15 9 -5 9 13 1 13 2 0 11 -12
8 -12 10 5 11 11 0 14 3 8 6 -7 2 -13 9 -13 14 0 6 6 7 13 3 8 -5 8 -2 -2 9
-7 9 -10 17 -6 17 4 0 3 6 -2 13 -6 6 -9 30 -8 52 1 22 -3 43 -9 47 -7 5 -4 8
7 8 9 0 17 5 17 11 0 5 -4 7 -10 4 -5 -3 -10 -1 -10 4 0 6 8 11 18 12 14 0 14
2 -3 9 -13 6 -15 9 -5 9 13 1 13 2 0 11 -12 8 -12 10 5 11 11 0 14 3 8 6 -7 2
-13 9 -13 14 0 6 6 7 13 3 8 -5 8 -2 -2 9 -7 9 -10 17 -6 17 4 0 3 6 -2 13 -6
6 -9 30 -8 52 1 22 -3 43 -9 47 -7 5 -5 8 6 8 9 0 20 5 24 12 4 7 3 8 -4 4
-14 -9 -13 -41 -15 357 -1 206 2 317 8 317 6 0 4 4 -4 9 -7 5 -10 14 -6 20 4
7 2 18 -5 26 -8 10 -8 15 1 21 8 5 9 3 4 -6 -5 -9 -4 -11 4 -6 7 5 9 12 3 19
-5 7 -8 30 -7 52 1 22 -3 43 -9 47 -7 5 -4 8 7 8 9 0 17 5 17 11 0 5 -4 7 -10
4 -5 -3 -10 -1 -10 4 0 6 8 11 18 12 14 0 14 2 -3 9 -13 6 -15 9 -5 9 13 1 13
2 0 11 -12 8 -12 10 5 11 11 0 14 3 8 6 -7 2 -13 9 -13 14 0 6 6 7 13 3 8 -5
8 -2 -2 9 -7 9 -10 17 -6 17 4 0 3 6 -2 13 -6 6 -9 30 -8 52 1 22 -3 43 -9 47
-7 5 -4 8 7 8 9 0 17 5 17 11 0 5 -4 7 -10 4 -5 -3 -10 -1 -10 4 0 6 8 11 18
12 14 0 14 2 -3 9 -13 6 -15 9 -5 9 13 1 13 2 0 11 -12 8 -12 10 5 11 11 0 14
3 8 6 -7 2 -13 9 -13 14 0 6 6 7 13 3 8 -5 8 -2 -2 9 -7 9 -10 17 -6 17 4 0 3
6 -2 13 -5 6 -8 18 -7 25 1 6 2 24 3 38 0 14 5 22 11 19 6 -3 10 2 10 11 0 16
1 16 16 -2 8 -10 13 -13 9 -6z m-299 -55 c2 -34 13 -55 25 -47 8 4 9 3 5 -4
-4 -7 -15 -12 -24 -12 -13 0 -13 -2 4 -16 10 -8 13 -12 5 -8 -10 5 -11 1 -6
-17 14 -42 14 -81 0 -76 -6 3 -12 -1 -12 -9 0 -7 3 -11 7 -9 3 2 12 -5 19 -17
7 -11 8 -17 2 -13 -6 3 -11 -1 -11 -10 0 -10 5 -13 13 -9 9 6 9 4 1 -7 -6 -8
-10 -22 -8 -32 2 -14 -2 -17 -14 -12 -13 5 -12 1 4 -16 10 -12 13 -19 5 -14
-10 6 -11 2 -6 -16 14 -42 14 -81 0 -76 -6 3 -12 -1 -12 -9 0 -7 3 -11 7 -9 3
2 12 -5 19 -17 7 -11 8 -17 2 -13 -6 3 -11 -1 -11 -10 0 -10 5 -13 13 -9 9 6
9 4 1 -7 -6 -8 -10 -22 -8 -32 2 -14 -2 -17 -14 -12 -13 5 -12 1 4 -16 10 -12
13 -19 5 -14 -10 6 -11 2 -6 -16 14 -42 14 -81 0 -76 -6 3 -12 -1 -12 -9 0 -7
3 -11 7 -9 3 2 12 -5 19 -17 7 -11 8 -17 2 -13 -6 3 -11 -1 -11 -10 0 -10 5
-13 13 -9 9 6 9 4 1 -7 -6 -8 -10 -22 -8 -32 2 -14 -2 -17 -14 -12 -13 5 -12
1 4 -16 10 -12 13 -19 5 -14 -10 6 -11 2 -6 -16 14 -42 14 -81 0 -76 -6 3 -12
-1 -12 -9 0 -7 3 -11 7 -9 3 2 12 -6 20 -18 12 -21 12 -21 -5 -7 -17 14 -18
14 -6 -7 10 -20 9 -22 -6 -17 -13 4 -11 -1 7 -17 19 -17 20 -21 6 -15 -17 6
-18 5 -3 -17 12 -19 13 -27 4 -36 -9 -9 -8 -17 2 -34 11 -18 11 -20 0 -9 -23
22 -30 13 -12 -15 12 -17 13 -24 4 -19 -10 7 -12 3 -6 -15 14 -42 14 -81 0
-76 -6 3 -12 -1 -12 -9 0 -7 3 -11 7 -9 3 2 11 -5 18 -16 7 -10 9 -18 5 -17
-8 3 -13 -5 -13 -23 0 -5 5 -7 12 -3 7 4 8 3 4 -5 -4 -6 -11 -9 -16 -6 -4 2
-6 -10 -4 -28 1 -17 3 -36 3 -40 1 -5 6 -5 13 -1 7 4 8 3 4 -5 -4 -6 -11 -9
-16 -6 -4 2 -6 -10 -4 -28 1 -17 3 -36 3 -40 1 -5 6 -5 13 -1 7 4 8 3 4 -5 -4
-6 -11 -9 -16 -6 -4 2 -6 -10 -4 -28 1 -17 3 -36 3 -40 1 -5 6 -5 13 -1 7 4 8
3 4 -5 -4 -6 -11 -9 -16 -6 -13 8 -2 -87 12 -97 10 -8 9 -9 -4 -5 -9 3 -19 -1
-22 -9 -3 -8 -2 -13 3 -10 5 3 12 -1 15 -10 4 -9 2 -13 -5 -8 -8 4 -9 -1 -4
-17 14 -42 14 -81 0 -76 -6 3 -12 -1 -12 -9 0 -7 3 -11 7 -9 3 2 12 -5 19 -17
7 -11 8 -17 2 -13 -6 3 -11 -1 -11 -10 0 -10 5 -13 13 -9 9 6 9 4 1 -7 -6 -8
-10 -22 -8 -32 2 -14 -2 -17 -14 -12 -13 5 -12 1 4 -16 10 -12 13 -19 5 -14
-10 6 -11 2 -6 -16 14 -42 14 -81 0 -76 -6 3 -12 -1 -12 -9 0 -7 3 -11 7 -9 3
2 12 -5 19 -17 7 -11 8 -17 2 -13 -6 3 -11 -1 -11 -10 0 -10 5 -13 13 -9 9 6
9 4 1 -7 -6 -8 -10 -22 -8 -32 2 -14 -2 -17 -14 -12 -13 5 -12 1 4 -16 10 -12
13 -19 7 -15 -16 9 -16 5 -3 -28 5 -15 6 -28 0 -31 -5 -3 -7 -12 -4 -20 4 -8
11 -12 17 -8 6 3 7 1 3 -6 -4 -6 -11 -9 -16 -6 -4 2 -6 -10 -4 -28 1 -17 3
-36 3 -40 1 -5 6 -5 13 -1 7 4 8 3 4 -5 -4 -6 -11 -9 -16 -6 -4 2 -6 -10 -4
-28 1 -17 3 -36 3 -40 1 -5 6 -5 13 -1 7 4 8 3 4 -5 -4 -6 -11 -9 -16 -6 -4 2
-6 -10 -4 -28 1 -17 3 -36 3 -40 1 -5 6 -5 13 -1 7 4 8 3 4 -5 -4 -6 -12 -8
-18 -5 -8 5 -9 1 -5 -10 4 -10 7 -22 7 -27 0 -6 5 -7 12 -3 7 4 8 3 4 -5 -4
-6 -13 -8 -19 -4 -7 4 -5 -2 3 -12 13 -17 13 -18 -1 -13 -9 4 -16 1 -16 -8 0
-7 3 -11 7 -9 3 2 12 -5 19 -17 7 -11 8 -17 2 -13 -6 3 -11 -1 -11 -10 0 -10
5 -13 13 -9 9 6 9 4 1 -7 -6 -8 -10 -22 -8 -32 2 -14 -2 -17 -14 -12 -13 5
-12 1 4 -16 10 -12 13 -19 5 -14 -10 6 -11 2 -6 -16 14 -42 14 -81 0 -76 -6 3
-12 -1 -12 -9 0 -7 3 -11 7 -9 3 2 12 -6 20 -18 12 -21 12 -21 -5 -7 -17 14
-18 14 -6 -7 10 -20 9 -22 -6 -17 -13 4 -11 -1 7 -17 19 -17 20 -21 6 -15 -17
6 -18 5 -3 -17 12 -19 13 -27 4 -36 -9 -9 -8 -17 2 -34 11 -18 11 -20 0 -9
-23 22 -30 13 -12 -15 12 -17 13 -24 4 -19 -10 7 -12 3 -6 -15 14 -42 14 -81
0 -76 -6 3 -12 -1 -12 -9 0 -8 3 -12 5 -9 3 3 12 -4 20 -16 11 -16 12 -23 3
-32 -9 -9 -11 -8 -6 4 4 10 2 20 -4 23 -15 9 -4 -56 11 -67 9 -6 8 -7 -4 -4
-9 3 -19 -1 -22 -9 -3 -8 -2 -13 3 -10 5 3 12 -1 15 -10 4 -9 2 -13 -5 -8 -8
4 -9 -1 -4 -17 14 -42 14 -81 0 -76 -6 3 -12 -1 -12 -9 0 -7 3 -11 7 -9 3 2
12 -5 19 -17 7 -11 8 -17 2 -13 -6 3 -11 -1 -11 -10 0 -10 5 -13 13 -9 9 6 9
4 1 -7 -6 -8 -10 -22 -8 -32 2 -14 -2 -17 -14 -12 -13 5 -12 1 4 -16 10 -12
13 -19 5 -14 -10 6 -11 2 -6 -16 14 -44 14 -81 -1 -75 -8 3 -11 0 -7 -9 3 -8
8 -13 12 -11 4 3 7 -4 7 -14 0 -15 -3 -17 -15 -7 -12 10 -13 9 -2 -12 7 -13 8
-21 3 -17 -15 9 -43 -4 -35 -18 4 -6 1 -6 -9 2 -13 10 -17 10 -22 -3 -3 -8
-13 -15 -21 -15 -9 0 -14 -4 -11 -8 2 -4 -5 -14 -17 -22 -20 -12 -21 -12 -8 4
8 9 11 19 7 23 -3 3 -6 2 -6 -3 0 -18 -41 -55 -52 -48 -7 4 -8 2 -4 -4 3 -6
-3 -16 -14 -22 -11 -6 -20 -17 -20 -25 0 -8 -5 -15 -11 -15 -5 0 -7 5 -3 12 4
7 3 8 -5 4 -6 -4 -9 -11 -6 -16 3 -5 -2 -16 -11 -24 -8 -9 -12 -16 -8 -16 3 0
1 -7 -6 -15 -23 -28 -34 2 -35 90 0 69 3 85 15 85 13 0 13 2 0 10 -21 13 -21
150 0 150 13 0 13 1 0 10 -21 13 -21 150 0 150 13 0 13 1 0 10 -21 13 -21 150
0 150 13 0 13 2 1 9 -21 14 -23 41 -3 34 13 -3 13 -1 -2 11 -20 16 -20 16 0
17 16 1 17 2 2 6 -10 2 -18 9 -18 14 0 6 5 7 12 3 7 -5 8 -3 2 7 -12 19 -11
42 1 51 6 5 5 8 -2 8 -7 0 -13 5 -13 11 0 5 5 7 12 3 7 -5 8 -3 3 7 -12 18
-14 69 -3 63 11 -7 10 7 -2 26 -6 9 -5 17 3 22 9 6 8 8 -3 9 -10 0 -8 3 5 9
17 7 17 9 3 9 -10 1 -18 6 -18 12 0 5 5 7 12 3 7 -5 8 -3 2 7 -12 19 -11 42 1
51 6 5 5 8 -2 8 -7 0 -13 5 -13 11 0 5 5 7 12 3 7 -5 8 -3 3 7 -12 18 -14 69
-3 63 11 -7 10 7 -2 26 -6 9 -5 17 3 22 9 6 8 8 -3 9 -10 0 -8 3 5 9 17 7 17
9 3 9 -10 1 -18 6 -18 12 0 5 5 7 12 3 7 -5 8 -3 2 7 -12 19 -11 42 1 51 6 5
5 8 -2 8 -7 0 -13 5 -13 11 0 5 5 7 12 3 7 -5 8 -3 3 7 -12 18 -14 69 -3 63
11 -7 10 7 -2 26 -6 9 -5 17 3 22 9 6 8 8 -3 9 -10 0 -8 3 5 9 17 7 17 9 3 9
-10 1 -18 6 -18 12 0 5 5 7 12 3 7 -5 8 -3 2 7 -12 19 -11 42 1 51 6 5 5 8 -2
8 -7 0 -13 5 -13 11 0 5 5 7 12 3 7 -5 8 -3 3 7 -12 18 -14 69 -3 63 11 -7 10
7 -2 26 -6 9 -5 17 3 22 9 6 8 8 -3 9 -10 0 -8 3 5 9 17 7 17 9 3 9 -10 1 -18
6 -18 12 0 5 5 7 12 3 7 -5 8 -3 2 7 -12 19 -11 42 1 51 6 5 5 8 -2 8 -7 0
-13 5 -13 11 0 5 5 7 12 3 7 -5 8 -3 3 7 -12 18 -14 69 -3 63 11 -7 10 7 -2
26 -6 9 -5 17 3 22 9 6 8 8 -3 9 -10 0 -8 3 5 9 17 7 17 9 3 9 -10 1 -18 6
-18 12 0 5 5 7 12 3 7 -5 8 -3 2 7 -12 19 -11 42 1 51 6 5 5 8 -2 8 -7 0 -13
5 -13 11 0 5 5 7 12 3 7 -5 8 -3 3 7 -12 18 -14 69 -3 63 11 -7 10 7 -2 26 -6
9 -5 17 3 22 9 6 8 8 -3 9 -10 0 -8 3 5 9 17 7 17 9 3 9 -10 1 -18 6 -18 12 0
5 5 7 12 3 7 -5 8 -3 2 7 -12 19 -11 42 1 51 6 5 5 8 -2 8 -7 0 -13 5 -13 11
0 5 5 7 12 3 7 -5 8 -3 3 7 -12 18 -14 69 -3 63 11 -7 10 7 -2 26 -6 9 -5 17
3 22 9 6 8 8 -3 9 -10 0 -8 3 5 9 17 7 17 9 3 9 -10 1 -18 6 -18 12 0 5 5 7
12 3 7 -5 8 -3 2 7 -12 19 -11 42 1 51 6 5 5 8 -2 8 -7 0 -13 5 -13 11 0 5 5
7 12 3 7 -5 8 -3 3 7 -12 18 -14 69 -3 63 11 -7 10 7 -2 26 -6 9 -5 17 3 22 9
6 8 8 -3 9 -10 0 -8 3 5 9 17 7 17 9 3 9 -10 1 -18 6 -18 12 0 5 5 7 12 3 7
-5 8 -3 2 7 -12 19 -11 42 1 51 6 5 5 8 -2 8 -7 0 -13 5 -13 11 0 5 5 7 12 3
7 -5 8 -3 3 7 -12 18 -14 69 -3 63 11 -7 10 7 -2 26 -6 9 -5 17 3 22 9 6 8 8
-3 9 -10 0 -8 3 5 9 17 7 17 9 3 9 -10 1 -18 6 -18 12 0 5 5 7 12 3 7 -5 8 -3
2 7 -12 19 -11 42 1 51 6 5 5 8 -2 8 -7 0 -13 5 -13 11 0 5 5 7 12 3 7 -5 8
-3 3 7 -12 18 -14 69 -3 63 11 -7 10 7 -2 26 -6 9 -5 17 3 22 9 6 8 8 -3 9
-10 0 -8 3 5 9 17 7 17 9 3 9 -10 1 -18 6 -18 12 0 5 5 7 12 3 7 -5 8 -3 2 7
-12 19 -11 42 1 51 6 5 5 8 -2 8 -7 0 -13 5 -13 11 0 5 5 7 12 3 7 -5 8 -3 3
6 -5 8 -9 42 -9 77 -1 50 2 63 14 63 13 1 13 2 0 10 -12 6 -15 26 -14 87 1 43
3 80 4 83 1 3 2 9 1 14 -1 5 5 6 13 3 15 -6 16 9 3 31 -5 6 -4 12 1 12 5 0 8
16 7 34 -1 19 3 32 7 29 5 -3 7 -12 4 -20 -3 -8 -1 -11 5 -8 5 4 7 16 3 27 -5
16 -3 20 8 15 11 -4 14 1 10 21 -4 21 -2 24 14 18 10 -4 15 -4 11 0 -4 4 1 16
10 27 10 11 13 17 6 14 -6 -4 -15 -2 -19 4 -4 7 -3 9 3 6 15 -9 66 40 57 55
-5 7 -3 8 6 3 8 -5 19 1 31 16 13 17 19 19 19 9 0 -12 3 -11 11 3 5 9 7 23 3
30 -5 8 -2 7 9 -2 11 -9 17 -10 17 -2 0 6 6 10 13 9 6 -2 11 3 9 10 -1 8 3 12
10 10 7 -3 13 -14 14 -25z m28 8 c3 -5 -1 -11 -9 -14 -9 -4 -12 -1 -8 9 6 16
10 17 17 5z m3276 5 c0 -3 -4 -8 -10 -11 -5 -3 -10 -1 -10 4 0 6 5 11 10 11 6
0 10 -2 10 -4z m-3053 -61 c0 -8 -4 -12 -9 -9 -5 3 -6 10 -3 15 9 13 12 11 12
-6z m0 -240 c0 -8 -4 -12 -9 -9 -5 3 -6 10 -3 15 9 13 12 11 12 -6z m3053 -19
c0 -3 -4 -8 -10 -11 -5 -3 -10 -1 -10 4 0 6 5 11 10 11 6 0 10 -2 10 -4z
m-3820 -326 c0 -5 -5 -10 -11 -10 -5 0 -7 5 -4 10 3 6 8 10 11 10 2 0 4 -4 4
-10z m3820 6 c0 -3 -4 -8 -10 -11 -5 -3 -10 -1 -10 4 0 6 5 11 10 11 6 0 10
-2 10 -4z m0 -320 c0 -3 -4 -8 -10 -11 -5 -3 -10 -1 -10 4 0 6 5 11 10 11 6 0
10 -2 10 -4z m-3820 -166 c0 -5 -5 -10 -11 -10 -5 0 -7 5 -4 10 3 6 8 10 11
10 2 0 4 -4 4 -10z m3820 -154 c0 -3 -4 -8 -10 -11 -5 -3 -10 -1 -10 4 0 6 5
11 10 11 6 0 10 -2 10 -4z m-3053 -141 c0 -8 -4 -12 -9 -9 -5 3 -6 10 -3 15 9
13 12 11 12 -6z m-226 -198 c-10 -9 -11 -8 -5 6 3 10 9 15 12 12 3 -3 0 -11
-7 -18z m3279 19 c0 -3 -4 -8 -10 -11 -5 -3 -10 -1 -10 4 0 6 5 11 10 11 6 0
10 -2 10 -4z m-3053 -61 c0 -8 -4 -12 -9 -9 -5 3 -6 10 -3 15 9 13 12 11 12
-6z m0 -240 c0 -8 -4 -12 -9 -9 -5 3 -6 10 -3 15 9 13 12 11 12 -6z m3053 -19
c0 -3 -4 -8 -10 -11 -5 -3 -10 -1 -10 4 0 6 5 11 10 11 6 0 10 -2 10 -4z
m-3820 -166 c0 -5 -5 -10 -11 -10 -5 0 -7 5 -4 10 3 6 8 10 11 10 2 0 4 -4 4
-10z m767 -55 c0 -8 -4 -12 -9 -9 -5 3 -6 10 -3 15 9 13 12 11 12 -6z m3053
-99 c0 -3 -4 -8 -10 -11 -5 -3 -10 -1 -10 4 0 6 5 11 10 11 6 0 10 -2 10 -4z
m-3053 -141 c0 -8 -4 -12 -9 -9 -5 3 -6 10 -3 15 9 13 12 11 12 -6z m3053
-179 c0 -3 -4 -8 -10 -11 -5 -3 -10 -1 -10 4 0 6 5 11 10 11 6 0 10 -2 10 -4z
m0 -320 c0 -3 -4 -8 -10 -11 -5 -3 -10 -1 -10 4 0 6 5 11 10 11 6 0 10 -2 10
-4z m-3820 -166 c0 -5 -5 -10 -11 -10 -5 0 -7 5 -4 10 3 6 8 10 11 10 2 0 4
-4 4 -10z m3820 -154 c0 -3 -4 -8 -10 -11 -5 -3 -10 -1 -10 4 0 6 5 11 10 11
6 0 10 -2 10 -4z m-3053 -61 c0 -8 -4 -12 -9 -9 -5 3 -6 10 -3 15 9 13 12 11
12 -6z m3053 -259 c0 -3 -4 -8 -10 -11 -5 -3 -10 -1 -10 4 0 6 5 11 10 11 6 0
10 -2 10 -4z m-2656 -144 c3 -5 -1 -9 -9 -9 -8 0 -12 4 -9 9 3 4 7 8 9 8 2 0
6 -4 9 -8z m1920 0 c3 -5 -1 -9 -9 -9 -8 0 -12 4 -9 9 3 4 7 8 9 8 2 0 6 -4 9
-8z m579 -227 c-3 -9 -8 -14 -10 -11 -3 3 -2 9 2 15 9 16 15 13 8 -4z m-2958
-4 c-9 -8 -36 -10 -30 -2 2 4 11 8 20 8 8 0 13 -3 10 -6z m260 -1 c3 -5 1 -10
-4 -10 -6 0 -11 5 -11 10 0 6 2 10 4 10 3 0 8 -4 11 -10z m160 0 c3 -5 1 -10
-4 -10 -6 0 -11 5 -11 10 0 6 2 10 4 10 3 0 8 -4 11 -10z m160 0 c3 -5 1 -10
-4 -10 -6 0 -11 5 -11 10 0 6 2 10 4 10 3 0 8 -4 11 -10z m160 0 c3 -5 1 -10
-4 -10 -6 0 -11 5 -11 10 0 6 2 10 4 10 3 0 8 -4 11 -10z m1440 0 c3 -5 1 -10
-4 -10 -6 0 -11 5 -11 10 0 6 2 10 4 10 3 0 8 -4 11 -10z m160 0 c3 -5 1 -10
-4 -10 -6 0 -11 5 -11 10 0 6 2 10 4 10 3 0 8 -4 11 -10z m160 0 c3 -5 1 -10
-4 -10 -6 0 -11 5 -11 10 0 6 2 10 4 10 3 0 8 -4 11 -10z m160 0 c3 -5 1 -10
-4 -10 -6 0 -11 5 -11 10 0 6 2 10 4 10 3 0 8 -4 11 -10z m-2656 -403 c0 -9
-2 -8 -6 1 -2 6 -10 9 -15 6 -7 -4 -8 -2 -4 5 9 13 26 5 25 -12z m614 0 c-4
-6 6 -7 23 -3 21 5 25 4 14 -4 -10 -6 -11 -10 -2 -10 6 0 12 -7 12 -16 0 -8 5
-12 10 -9 6 3 10 -3 10 -15 0 -12 4 -19 8 -16 4 2 14 1 22 -5 8 -5 10 -9 4 -9
-6 0 -11 -7 -11 -15 0 -8 5 -15 11 -15 6 0 4 -5 -4 -10 -12 -8 -12 -10 -1 -10
11 0 11 -3 1 -15 -9 -11 -9 -15 -1 -15 8 0 9 -5 2 -19 -6 -10 -7 -22 -3 -26 4
-5 3 -6 -3 -3 -5 3 -18 -3 -27 -14 -10 -10 -15 -18 -10 -19 4 0 -2 -4 -13 -9
-19 -8 -19 -8 5 -18 l25 -11 -25 -1 c-22 0 -23 -2 -7 -11 9 -6 15 -14 12 -20
-4 -5 2 -6 11 -2 12 4 15 3 10 -5 -4 -7 -3 -12 2 -12 13 0 33 -48 22 -55 -5
-3 -7 -11 -5 -18 11 -29 -37 -55 -66 -35 -11 8 -9 8 6 4 17 -5 16 -3 -5 14
-16 13 -18 18 -7 14 15 -5 16 -3 8 19 -5 14 -7 28 -3 33 4 4 1 4 -5 0 -9 -5
-13 0 -13 14 0 18 -3 19 -21 9 -12 -6 -19 -7 -15 -1 3 5 -1 12 -9 16 -8 3 -17
1 -20 -4 -4 -6 -15 -10 -26 -10 -11 0 -17 -4 -14 -10 3 -5 1 -10 -4 -10 -6 0
-11 4 -11 10 0 5 -5 9 -11 7 -17 -3 -37 34 -21 40 6 3 12 14 12 26 -1 27 -24
59 -35 49 -5 -4 -5 1 -2 11 5 13 3 16 -5 10 -19 -11 -48 -11 -48 1 0 6 -5 3
-11 -7 -6 -9 -15 -15 -20 -11 -5 3 -8 2 -7 -3 1 -4 -4 -19 -12 -33 -12 -23
-12 -24 4 -11 16 13 16 12 4 -14 -10 -23 -10 -29 0 -33 7 -2 10 -8 7 -12 -3
-5 0 -12 6 -16 8 -4 9 -3 5 4 -4 7 -2 12 4 12 6 0 13 -7 16 -15 6 -14 8 -13
20 2 11 14 13 14 9 2 -4 -10 0 -16 9 -16 8 0 13 4 10 9 -10 16 34 8 47 -9 10
-12 10 -15 1 -9 -15 9 -54 -2 -47 -14 3 -4 -5 -6 -17 -3 -19 4 -20 3 -8 -6 12
-9 11 -11 -9 -11 -17 0 -22 -4 -17 -16 4 -12 2 -15 -9 -10 -8 3 -15 1 -15 -4
0 -6 -7 -10 -16 -10 -9 0 -12 -5 -8 -12 5 -8 0 -7 -11 2 -12 10 -16 10 -11 2
9 -14 -10 -42 -28 -42 -6 0 -5 4 3 9 8 5 12 18 8 30 -3 12 -2 19 2 17 18 -12
27 11 19 50 -6 31 -15 43 -31 48 -17 4 -19 8 -9 18 18 18 14 32 -5 17 -15 -11
-16 -11 -6 1 10 11 10 17 0 29 -10 14 -10 14 5 3 14 -11 16 -9 13 22 -3 26 0
33 10 30 7 -3 16 0 21 7 5 8 3 10 -7 4 -12 -7 -12 -6 -1 7 14 18 13 86 -2 95
-5 3 -6 1 -2 -5 5 -8 2 -10 -8 -6 -9 3 -13 10 -10 16 3 5 -2 18 -11 28 -11 12
-13 20 -5 25 5 3 7 11 4 17 -5 7 -2 8 6 3 9 -6 12 -4 8 7 -4 9 0 15 10 15 19
0 43 -27 36 -39 -3 -4 2 -5 10 -2 9 3 16 1 16 -5 0 -6 -5 -11 -11 -11 -5 0 -7
-5 -3 -12 5 -8 9 -9 11 -1 3 8 12 7 30 -2 23 -12 28 -12 41 3 7 9 11 12 8 5
-4 -7 1 -9 15 -6 14 4 19 12 16 24 -3 12 -1 17 6 12 6 -4 8 1 5 14 -3 12 0 20
8 20 7 0 10 -5 7 -11 -3 -6 0 -5 8 2 7 6 24 12 39 12 20 0 22 -2 10 -11 -12
-9 -12 -10 3 -5 10 3 21 6 23 6 3 0 3 4 0 8 -2 4 6 8 19 8 13 0 21 -4 18 -9z
m-269 -13 c3 -8 2 -12 -4 -9 -6 3 -10 10 -10 16 0 14 7 11 14 -7z m2671 -193
c3 -5 2 -12 -3 -15 -5 -3 -9 1 -9 9 0 17 3 19 12 6z m-2960 -231 c3 -5 1 -10
-4 -10 -6 0 -11 5 -11 10 0 6 2 10 4 10 3 0 8 -4 11 -10z m900 0 c3 -5 1 -10
-4 -10 -6 0 -11 5 -11 10 0 6 2 10 4 10 3 0 8 -4 11 -10z m60 0 c3 -5 1 -10
-4 -10 -6 0 -11 5 -11 10 0 6 2 10 4 10 3 0 8 -4 11 -10z m120 0 c3 -5 1 -10
-4 -10 -6 0 -11 5 -11 10 0 6 2 10 4 10 3 0 8 -4 11 -10z m80 0 c3 -5 1 -10
-4 -10 -6 0 -11 5 -11 10 0 6 2 10 4 10 3 0 8 -4 11 -10z m80 0 c3 -5 1 -10
-4 -10 -6 0 -11 5 -11 10 0 6 2 10 4 10 3 0 8 -4 11 -10z m80 0 c3 -5 1 -10
-4 -10 -6 0 -11 5 -11 10 0 6 2 10 4 10 3 0 8 -4 11 -10z m120 0 c3 -5 1 -10
-4 -10 -6 0 -11 5 -11 10 0 6 2 10 4 10 3 0 8 -4 11 -10z m240 0 c3 -5 1 -10
-4 -10 -6 0 -11 5 -11 10 0 6 2 10 4 10 3 0 8 -4 11 -10z m240 0 c3 -5 1 -10
-4 -10 -6 0 -11 5 -11 10 0 6 2 10 4 10 3 0 8 -4 11 -10z m120 0 c3 -5 1 -10
-4 -10 -6 0 -11 5 -11 10 0 6 2 10 4 10 3 0 8 -4 11 -10z m80 0 c3 -5 1 -10
-4 -10 -6 0 -11 5 -11 10 0 6 2 10 4 10 3 0 8 -4 11 -10z m80 0 c3 -5 1 -10
-4 -10 -6 0 -11 5 -11 10 0 6 2 10 4 10 3 0 8 -4 11 -10z m80 0 c3 -5 1 -10
-4 -10 -6 0 -11 5 -11 10 0 6 2 10 4 10 3 0 8 -4 11 -10z m120 0 c3 -5 1 -10
-4 -10 -6 0 -11 5 -11 10 0 6 2 10 4 10 3 0 8 -4 11 -10z m240 0 c3 -5 1 -10
-4 -10 -6 0 -11 5 -11 10 0 6 2 10 4 10 3 0 8 -4 11 -10z m240 0 c3 -5 1 -10
-4 -10 -6 0 -11 5 -11 10 0 6 2 10 4 10 3 0 8 -4 11 -10z m45 4 c0 -8 -19 -13
-24 -6 -3 5 1 9 9 9 8 0 15 -2 15 -3z"/>
<path d="M1873 5385 c0 -8 4 -12 9 -9 5 3 6 10 3 15 -9 13 -12 11 -12 -6z"/>
<path d="M3237 5216 c-6 -15 -10 -16 -22 -6 -11 9 -15 9 -15 1 0 -8 -5 -9 -19
-1 -14 7 -22 7 -27 -2 -5 -7 -3 -8 6 -3 9 5 11 4 6 -4 -6 -9 -11 -9 -24 1 -9
7 -13 8 -9 2 4 -7 -3 -14 -18 -18 -14 -4 -23 -11 -20 -16 4 -6 -1 -7 -11 -3
-14 5 -16 3 -10 -13 6 -15 4 -16 -5 -7 -15 15 -44 -11 -33 -29 5 -8 0 -7 -11
2 -17 14 -18 13 -12 -2 4 -13 2 -15 -10 -11 -13 5 -15 2 -10 -11 4 -10 3 -15
-3 -11 -6 3 -10 1 -10 -5 0 -6 -5 -8 -12 -4 -8 5 -7 0 2 -11 8 -10 10 -16 3
-12 -7 4 -14 -1 -18 -13 -4 -11 -10 -18 -15 -15 -5 3 -7 -4 -5 -15 3 -13 -1
-20 -12 -20 -13 0 -14 -2 -2 -17 8 -9 9 -14 3 -10 -11 6 -18 -10 -29 -65 -2
-10 4 -22 13 -28 24 -13 5 -12 -21 1 -21 12 -21 11 -4 -8 19 -21 23 -38 7 -28
-6 3 -7 -1 -4 -9 3 -9 10 -13 15 -10 5 3 6 -2 3 -10 -3 -9 -11 -13 -16 -10 -6
4 -5 -4 2 -16 7 -13 8 -20 2 -16 -6 3 -14 1 -18 -5 -4 -7 -3 -9 4 -5 18 11 22
-9 7 -37 -8 -15 -10 -27 -6 -27 10 0 13 -37 9 -110 -1 -18 -5 -27 -12 -23 -7
4 -7 1 1 -8 19 -24 20 -51 0 -54 -9 -2 -15 1 -11 6 3 5 -7 4 -21 -1 -34 -13
-38 -13 -29 3 6 10 4 10 -7 0 -7 -7 -20 -13 -28 -13 -14 0 -14 1 -1 10 8 5 10
10 5 10 -6 0 -16 -5 -23 -12 -7 -7 -12 -8 -12 -4 0 5 -6 3 -14 -3 -10 -8 -16
-9 -21 -1 -4 7 -12 7 -26 0 -14 -8 -19 -7 -19 2 0 9 -3 9 -10 -2 -5 -8 -10
-11 -10 -6 0 5 -6 3 -14 -3 -11 -9 -15 -9 -19 1 -3 7 -6 2 -6 -12 -1 -14 -5
-20 -9 -15 -12 17 -35 17 -29 1 4 -9 3 -15 -1 -14 -4 1 -20 -4 -35 -10 -18 -8
-26 -16 -21 -24 5 -9 2 -8 -9 1 -15 12 -17 12 -11 -3 4 -11 2 -16 -7 -14 -8 2
-13 -3 -11 -11 2 -8 -3 -11 -12 -8 -10 4 -13 1 -10 -8 3 -8 -2 -15 -13 -17
-10 -2 -18 -12 -18 -23 0 -14 -6 -19 -20 -18 -11 1 -14 0 -7 -3 14 -7 16 -34
2 -34 -5 0 -10 -11 -10 -25 0 -14 -5 -25 -11 -25 -5 0 -7 5 -3 12 4 7 3 8 -5
4 -9 -6 -9 -11 1 -24 10 -12 10 -16 1 -19 -7 -3 -13 -9 -13 -14 0 -6 4 -7 10
-4 6 3 7 -1 4 -9 -3 -9 -10 -13 -15 -10 -5 3 -6 -2 -3 -10 3 -9 10 -13 15 -10
12 7 -2 -29 -15 -38 -7 -5 -7 -8 2 -8 7 0 11 -4 8 -8 -3 -5 1 -20 9 -35 12
-23 11 -25 -3 -20 -11 3 -8 -4 8 -18 17 -15 19 -20 8 -16 -24 9 -23 -5 1 -20
12 -8 18 -20 16 -33 -2 -11 1 -23 7 -26 7 -4 8 -2 4 4 -4 7 -5 12 -2 12 3 0
10 -10 17 -21 9 -17 8 -20 -3 -13 -9 6 -8 1 3 -16 9 -14 26 -26 37 -28 11 -2
23 -10 26 -19 5 -12 3 -13 -7 -7 -7 5 -3 0 10 -11 12 -11 37 -29 55 -39 l33
-18 -25 22 c-24 20 -24 21 -2 10 13 -6 26 -18 29 -26 5 -13 7 -13 14 -2 7 10
9 9 9 -5 0 -10 5 -15 10 -12 6 3 10 1 10 -6 0 -8 4 -9 13 -1 10 9 19 7 37 -5
13 -9 20 -11 16 -4 -6 8 -2 11 10 9 11 -2 22 -10 26 -18 6 -13 7 -13 7 0 1 12
14 15 64 12 79 -3 96 -5 95 -12 0 -3 1 -7 2 -10 11 -29 7 -40 -13 -35 -15 4
-18 3 -9 -3 7 -5 10 -17 6 -28 -5 -15 -4 -16 5 -4 9 13 12 13 23 1 9 -10 9
-12 1 -7 -8 4 -15 -3 -19 -21 -3 -15 -7 -33 -9 -40 -2 -7 0 -15 5 -18 6 -4 10
-11 10 -17 0 -6 -7 -5 -17 3 -16 12 -17 12 -6 -2 7 -9 9 -20 5 -24 -4 -5 -1
-4 7 0 11 6 13 4 8 -9 -4 -10 -7 -27 -7 -37 0 -11 -4 -17 -10 -14 -6 3 -7 -1
-3 -10 4 -13 7 -14 14 -3 7 11 10 10 21 -1 9 -10 9 -12 1 -7 -8 4 -15 -3 -19
-21 -3 -15 -7 -33 -9 -40 -2 -7 0 -15 5 -18 14 -9 12 -25 -2 -21 -7 1 -10 1
-5 -1 4 -3 4 -10 1 -15 -4 -7 -2 -8 5 -4 11 7 9 -16 -4 -61 -2 -7 0 -15 5 -18
14 -9 12 -25 -2 -21 -7 1 -10 1 -5 -1 4 -3 4 -10 1 -15 -4 -7 -2 -8 5 -4 8 6
10 0 5 -18 -4 -17 -2 -26 6 -26 6 0 8 -5 5 -10 -4 -6 -10 -8 -14 -6 -4 3 -8
-1 -8 -9 0 -8 4 -12 9 -9 11 7 -2 -58 -15 -74 -8 -9 -7 -12 3 -10 7 2 15 -3
18 -11 2 -8 0 -11 -5 -8 -5 3 -10 0 -10 -8 0 -8 4 -12 9 -9 8 5 4 -26 -7 -63
-2 -7 0 -15 5 -18 6 -4 10 -11 10 -17 0 -6 -7 -5 -17 3 -16 12 -17 12 -6 -2 7
-9 9 -20 5 -24 -4 -5 -1 -5 6 -1 15 9 15 1 1 -26 -10 -18 -9 -20 6 -14 14 5
15 3 8 -6 -13 -17 -22 -78 -11 -78 4 0 8 5 8 12 0 6 3 8 6 5 4 -4 2 -12 -3
-19 -13 -17 -22 -78 -11 -78 4 0 8 5 8 12 0 6 3 8 6 5 4 -4 2 -12 -3 -19 -13
-16 -22 -78 -12 -78 4 0 10 6 12 13 4 9 6 9 6 0 1 -6 -3 -15 -9 -18 -5 -3 -10
-20 -10 -36 0 -17 4 -28 9 -24 13 7 5 -33 -9 -49 -5 -7 -7 -16 -3 -20 4 -4 1
-12 -7 -17 -12 -9 -11 -10 4 -5 14 5 17 2 12 -10 -3 -8 -6 -25 -6 -35 0 -13
-4 -18 -12 -13 -7 4 -5 -2 5 -13 20 -23 23 -37 5 -27 -7 4 -4 -3 7 -16 15 -17
17 -24 7 -27 -10 -4 -10 -8 -2 -18 7 -8 10 -24 8 -37 -2 -13 6 -32 20 -47 17
-18 19 -27 11 -37 -9 -10 -9 -14 0 -14 6 0 11 -8 11 -17 0 -15 2 -16 10 -3 8
12 10 10 10 -8 0 -16 4 -21 13 -16 7 5 7 2 -2 -10 -8 -9 -10 -16 -5 -15 20 3
45 -1 41 -8 -2 -5 6 -19 20 -33 21 -22 23 -22 18 -5 -6 18 -5 18 5 2 6 -9 8
-23 4 -30 -5 -8 -2 -7 9 2 13 10 17 10 17 1 0 -10 3 -10 15 0 13 11 14 10 9
-4 -4 -11 -2 -16 7 -14 8 2 13 -2 12 -8 -1 -7 6 -10 17 -7 11 3 27 0 36 -8 20
-16 108 -23 98 -7 -5 7 -2 8 6 3 7 -4 23 -9 36 -11 17 -2 21 2 16 14 -5 15 -3
15 10 4 12 -9 18 -10 23 -2 4 6 14 9 22 6 10 -4 13 -2 10 8 -4 10 -1 13 8 9 8
-3 12 -10 8 -17 -3 -6 -2 -7 3 -3 5 5 9 14 9 20 0 7 9 12 20 12 21 1 68 24 50
25 -6 0 -17 -6 -25 -12 -12 -11 -12 -10 -1 5 7 9 19 17 26 17 7 0 20 10 29 22
9 13 14 16 11 8 -4 -10 -2 -9 8 2 8 10 16 15 19 12 3 -2 8 2 12 11 3 9 2 13
-4 10 -6 -3 -7 1 -4 9 3 9 10 14 14 11 11 -7 22 24 13 38 -4 7 2 5 12 -3 11
-9 16 -10 11 -3 -4 8 -2 13 6 13 9 0 9 3 -2 10 -11 7 -11 10 -2 10 7 0 10 5 7
11 -4 6 1 17 11 25 11 9 13 12 5 8 -9 -4 -12 -2 -9 7 3 8 12 13 19 11 11 -3
11 -1 2 9 -9 9 -9 17 -1 32 7 14 7 22 -2 27 -9 6 -9 9 1 13 12 5 12 6 0 6 -11
1 -11 4 0 17 10 13 10 17 -2 25 -8 5 -9 9 -3 9 14 0 14 30 0 30 -7 0 -7 3 -1
8 15 11 17 32 3 32 -10 0 -10 2 0 9 8 4 14 12 14 16 0 4 -6 12 -14 16 -7 5 -8
9 -3 9 6 0 11 11 11 25 1 14 -2 25 -7 25 -5 0 -9 5 -9 11 0 5 3 8 8 6 4 -3 8
6 8 19 1 13 -3 24 -10 24 -7 0 -7 3 -1 8 14 10 17 52 4 52 -7 0 -6 6 2 17 11
13 11 17 2 20 -7 3 -13 9 -13 14 0 6 3 8 8 6 4 -3 8 6 8 19 1 13 -3 24 -10 24
-7 0 -7 3 -1 8 14 10 16 45 2 54 -8 5 -8 8 3 8 13 0 13 1 0 10 -8 5 -10 10 -4
10 6 0 11 7 11 15 0 8 -5 15 -11 15 -6 0 -5 4 2 9 17 11 17 21 0 32 -7 5 -8 9
-2 9 6 0 11 7 11 15 0 8 -5 15 -11 15 -6 0 -5 4 3 9 9 6 10 11 2 15 -8 5 -8
13 0 28 9 16 8 23 -2 29 -8 5 -9 9 -4 9 6 0 11 11 11 25 1 14 -2 25 -7 25 -5
0 -9 5 -9 11 0 5 3 8 8 6 4 -3 8 6 8 19 1 13 -3 24 -10 24 -7 0 -7 3 -1 8 13
9 17 52 5 52 -6 0 -10 5 -10 11 0 5 3 8 8 6 4 -3 8 6 8 19 1 13 -3 24 -10 24
-7 0 -6 3 2 9 8 4 14 12 14 16 0 4 -6 12 -14 16 -7 5 -8 9 -2 9 6 0 11 7 11
15 0 8 -5 15 -11 15 -6 0 -5 4 2 9 8 4 14 12 14 16 0 4 -6 12 -14 16 -7 5 -8
9 -2 9 6 0 11 7 11 15 0 8 -5 15 -11 15 -6 0 -5 4 2 9 8 4 14 12 14 16 0 4 -6
12 -14 16 -7 5 -8 9 -2 9 6 0 11 7 11 15 0 8 -5 15 -11 15 -7 0 -7 3 -1 8 15
11 17 32 3 32 -10 0 -10 2 0 9 8 4 14 12 14 16 0 4 -6 12 -14 16 -11 7 -11 9
1 9 10 0 11 3 3 13 -7 8 -7 18 -2 27 6 9 4 20 -3 29 -9 11 -9 13 0 8 7 -5 13
1 15 15 3 24 14 26 71 15 16 -4 25 -2 22 4 -4 5 -11 6 -17 3 -7 -4 -8 -2 -4 5
4 6 13 8 19 4 7 -4 18 -8 26 -10 8 -1 18 -8 22 -15 6 -9 9 -5 10 12 1 17 3 19
6 8 6 -22 23 -24 23 -2 0 8 5 12 10 9 6 -4 7 -12 3 -18 -4 -7 0 -6 10 2 9 7
17 10 17 6 0 -4 6 -3 13 4 10 8 17 7 26 -2 10 -9 11 -8 5 7 -6 16 -5 17 14 7
19 -10 21 -9 15 5 -4 12 -3 15 5 10 7 -4 12 -3 12 3 0 6 8 7 17 4 13 -5 15 -2
10 12 -6 15 -5 16 8 5 13 -11 16 -11 13 1 -2 8 3 13 11 11 9 -2 11 3 7 14 -6
15 -4 15 11 3 9 -8 14 -9 10 -3 -4 7 0 14 8 18 8 3 15 13 15 23 0 15 2 16 10
3 8 -12 10 -11 10 8 0 12 5 22 10 22 6 0 10 7 10 15 0 9 7 18 15 21 12 5 13
10 4 20 -8 10 -6 12 10 9 19 -3 20 -1 10 17 -10 18 -9 20 7 14 16 -6 16 -5 -2
15 -10 12 -14 19 -7 15 13 -7 19 10 27 77 2 20 1 37 -3 37 -3 0 -6 25 -5 55 0
30 -3 52 -8 49 -8 -5 -12 10 -8 35 1 8 -4 12 -14 8 -11 -4 -14 1 -12 21 2 26
-28 60 -48 54 -5 -2 -6 4 -3 13 4 9 1 15 -7 15 -7 0 -21 10 -32 22 -10 12 -13
18 -5 13 10 -6 12 -4 6 4 -4 7 -16 10 -27 8 -14 -4 -18 -1 -14 8 2 7 -2 16
-10 19 -10 4 -13 1 -9 -7 4 -6 0 -4 -8 5 -8 10 -17 15 -20 11 -4 -3 -16 2 -27
12 -12 11 -37 18 -67 19 -27 1 -54 5 -62 10 -9 6 -12 5 -8 -1 4 -6 0 -13 -8
-16 -9 -4 -12 -1 -8 9 4 10 0 12 -11 8 -9 -3 -13 -11 -9 -18 4 -6 -1 -5 -10 3
-9 7 -17 10 -17 6 0 -4 -6 -2 -14 4 -10 8 -16 9 -21 1 -3 -5 -11 -10 -16 -10
-6 0 -7 5 -3 12 5 7 2 9 -9 5 -13 -5 -15 0 -13 29 3 21 -1 34 -8 34 -7 0 -6 4
3 9 9 6 10 11 2 15 -8 5 -8 13 0 28 9 16 8 23 -2 29 -8 5 -9 9 -4 9 6 0 11 11
11 25 1 14 -2 25 -7 25 -5 0 -9 5 -9 11 0 5 3 8 8 6 4 -3 8 6 8 19 1 13 -3 24
-10 24 -7 0 -7 3 -1 8 15 11 17 52 2 52 -9 0 -8 3 1 9 17 10 17 22 1 32 -10 6
-10 11 0 23 9 11 10 16 2 16 -6 0 -10 3 -10 8 3 18 -2 33 -9 28 -5 -3 -9 1 -9
9 0 8 3 12 7 10 4 -2 7 2 7 10 0 8 -5 13 -11 12 -6 -1 -10 4 -8 11 1 6 -3 12
-9 12 -8 0 -7 6 2 17 10 11 10 14 2 9 -21 -12 -36 3 -21 22 7 9 8 13 3 10 -16
-10 -36 6 -38 30 0 11 -4 19 -8 17 -3 -3 -17 6 -30 18 -13 12 -25 21 -26 20
-8 -8 -23 -2 -18 7 3 6 1 10 -5 10 -6 0 -18 7 -27 15 -8 9 -18 13 -21 10 -4
-3 0 -10 8 -15 8 -6 10 -10 4 -10 -16 0 -35 25 -26 36 4 4 -2 2 -12 -6 -17
-13 -18 -13 -11 -1 6 11 4 13 -8 8 -10 -3 -17 -2 -17 2 0 5 -10 7 -22 3 -15
-4 -19 -2 -13 7 6 10 3 11 -14 2 -14 -8 -21 -8 -21 -1 0 5 -5 10 -11 10 -5 0
-7 -6 -3 -12 5 -8 0 -7 -11 2 -11 9 -16 10 -11 3 4 -7 3 -13 -3 -13 -5 0 -11
5 -13 12 -3 7 -7 5 -11 -6z m314 -113 c13 -16 12 -17 -3 -4 -10 7 -18 15 -18
17 0 8 8 3 21 -13z m-198 -135 c14 3 18 1 13 -7 -4 -6 -13 -8 -19 -4 -7 4 -7
1 1 -9 8 -9 20 -14 28 -11 9 3 14 -2 14 -17 0 -11 4 -19 9 -16 12 8 22 -20 15
-39 -4 -8 -2 -15 4 -15 6 0 4 -12 -4 -30 -9 -16 -18 -30 -20 -30 -3 0 -3 4 1
9 3 5 1 12 -5 16 -5 3 -10 -2 -10 -12 0 -15 -2 -16 -10 -3 -8 12 -11 11 -16
-8 -5 -18 -9 -21 -16 -10 -7 9 -8 7 -5 -9 3 -13 2 -23 -2 -23 -4 0 -7 -9 -7
-19 0 -11 5 -17 10 -14 5 4 7 -1 3 -10 -4 -11 -1 -17 9 -17 9 0 12 -5 8 -12
-4 -7 -4 -10 1 -6 4 4 14 3 22 -3 9 -9 13 -8 13 0 0 8 5 8 19 -1 13 -8 17 -17
12 -27 -5 -9 -5 -25 -1 -36 4 -11 3 -26 -3 -33 -8 -10 -7 -16 3 -22 12 -7 11
-11 -1 -26 -8 -11 -9 -15 -2 -10 9 5 11 2 7 -8 -3 -9 -12 -12 -21 -9 -11 4
-14 2 -9 -5 4 -7 -1 -10 -14 -7 -15 3 -24 -3 -32 -20 -6 -13 -15 -22 -20 -18
-6 3 -5 -4 1 -16 9 -16 9 -21 -1 -21 -8 -1 -7 -5 5 -14 19 -15 23 -31 5 -20
-7 4 -9 3 -5 -2 4 -4 21 -9 37 -9 28 -1 94 -55 67 -55 -8 0 -8 -3 -2 -8 6 -4
12 -20 13 -37 1 -16 7 -31 12 -33 6 -2 10 -8 10 -13 0 -6 -5 -7 -12 -3 -7 4
-8 3 -4 -4 4 -6 13 -9 21 -5 9 3 22 0 30 -7 18 -15 55 -3 55 18 0 15 2 15 10
2 8 -13 10 -12 11 5 1 11 1 22 1 26 0 3 11 4 26 3 15 -1 42 -4 60 -5 20 -2 31
-8 28 -15 -2 -6 7 -17 20 -23 14 -6 23 -15 20 -20 -10 -15 38 2 52 18 10 14
12 14 9 1 -2 -8 -2 -12 0 -7 3 4 8 5 13 2 4 -3 6 3 3 14 -3 10 1 22 8 26 8 6
10 4 4 -6 -6 -11 -5 -11 5 -2 10 9 18 9 34 1 18 -9 19 -9 11 3 -5 8 1 3 14
-11 13 -14 20 -18 15 -10 -4 9 -3 12 2 7 5 -5 10 -13 10 -18 1 -5 2 -14 3 -20
0 -5 6 -7 11 -4 6 3 10 2 10 -4 0 -5 -5 -11 -12 -13 -17 -6 -59 3 -54 11 3 4
-4 7 -14 7 -14 0 -16 -4 -9 -13 8 -9 6 -11 -10 -8 -12 2 -20 -1 -18 -8 1 -7
-2 -11 -8 -10 -5 1 -10 -12 -10 -28 0 -16 3 -29 8 -29 4 0 7 -5 7 -11 0 -5 -6
-7 -12 -3 -9 5 -9 3 1 -9 7 -9 18 -14 24 -10 6 4 7 1 2 -7 -6 -10 -4 -12 8 -7
10 4 20 0 26 -11 7 -11 11 -12 11 -4 0 7 5 10 10 7 6 -3 10 -1 10 4 0 6 5 11
11 11 5 0 7 -4 4 -10 -3 -5 -1 -10 5 -10 6 0 8 -5 5 -10 -4 -6 -11 -7 -17 -4
-8 5 -9 1 -4 -11 5 -15 4 -16 -9 -5 -9 7 -15 9 -13 4 2 -5 -2 -11 -7 -13 -6
-2 -20 -7 -32 -12 -18 -7 -29 -2 -55 24 -17 18 -29 26 -24 20 4 -7 3 -13 -1
-13 -5 0 -15 6 -22 13 -11 10 -13 10 -7 0 4 -7 2 -14 -3 -14 -26 -3 -30 -4
-37 -11 -4 -5 -1 -8 7 -8 12 0 12 -2 -1 -10 -9 -6 -17 -5 -22 3 -5 8 -8 6 -8
-7 0 -15 -3 -16 -15 -6 -12 10 -15 9 -15 -6 0 -14 -2 -16 -9 -6 -7 12 -25 19
-55 21 -4 1 -5 8 -2 17 3 8 2 13 -2 11 -14 -9 -53 13 -46 24 4 8 3 9 -5 5 -6
-4 -9 -12 -6 -17 3 -5 -1 -6 -9 -3 -9 3 -16 1 -16 -5 0 -6 -5 -11 -11 -11 -5
0 -7 6 -3 13 6 9 3 8 -8 -1 -9 -8 -14 -20 -11 -28 3 -8 0 -14 -6 -14 -6 0 -8
-7 -4 -17 4 -11 3 -14 -5 -9 -8 5 -10 2 -6 -8 3 -9 11 -13 18 -10 6 3 3 -1 -8
-10 -10 -8 -15 -19 -11 -25 3 -6 1 -11 -4 -11 -6 0 -11 -8 -11 -17 0 -12 -3
-14 -8 -6 -5 7 -13 9 -21 3 -8 -4 -20 -6 -28 -3 -8 3 -13 0 -11 -8 2 -8 -3
-13 -12 -11 -8 2 -12 0 -8 -3 4 -4 3 -16 -3 -26 -7 -14 -6 -19 3 -19 9 0 9 -3
-2 -10 -10 -6 -11 -10 -2 -10 6 0 12 -5 12 -11 0 -5 -5 -7 -12 -3 -7 4 -8 3
-4 -5 4 -6 12 -9 17 -6 5 4 9 1 9 -4 0 -6 9 -11 20 -11 11 0 20 -4 20 -10 0
-5 10 -10 23 -10 18 0 19 -2 7 -10 -10 -6 -11 -10 -2 -10 6 0 12 -5 12 -11 0
-5 -4 -8 -9 -4 -9 5 -5 -40 5 -56 2 -4 -2 -10 -8 -12 -10 -4 -10 -8 1 -15 11
-8 10 -13 -7 -28 -12 -10 -19 -21 -16 -25 2 -4 -7 -6 -22 -3 -18 3 -23 1 -18
-7 5 -9 2 -10 -9 -6 -9 3 -19 1 -23 -5 -4 -6 -3 -8 3 -5 6 4 9 -11 7 -38 -2
-39 0 -44 26 -55 16 -7 34 -9 41 -4 7 4 10 3 5 -4 -3 -6 -2 -13 4 -17 6 -4 8
-11 5 -16 -4 -5 -1 -9 6 -9 8 0 7 -5 -2 -17 -12 -14 -12 -15 -1 -9 11 7 12 4
3 -12 -8 -15 -8 -21 2 -25 9 -3 8 -8 -3 -22 -13 -17 -13 -18 0 -10 13 8 13 7
1 -8 -9 -12 -10 -17 -2 -17 7 0 9 -5 6 -11 -4 -6 -13 -8 -21 -5 -9 3 -14 -1
-14 -11 0 -14 -2 -14 -16 3 -8 10 -13 13 -9 7 3 -7 1 -13 -4 -13 -6 0 -11 -8
-11 -17 0 -15 -2 -16 -10 -3 -7 11 -10 2 -10 -33 0 -36 3 -46 13 -41 9 6 9 4
-1 -8 -11 -14 -10 -16 5 -14 10 2 23 -3 31 -10 7 -7 20 -10 29 -7 11 4 14 3 9
-5 -4 -7 -2 -12 6 -12 9 0 9 -3 -2 -10 -13 -8 -13 -10 0 -10 10 0 11 -3 3 -11
-8 -8 -8 -20 -3 -35 7 -17 6 -24 -3 -24 -9 0 -9 -2 0 -8 7 -5 9 -13 3 -21 -4
-8 -6 -20 -3 -28 3 -7 1 -13 -5 -13 -6 0 -13 6 -15 13 -3 6 -6 1 -7 -13 -1
-23 -2 -23 -10 -5 -5 11 -9 14 -9 7 -1 -7 -5 -10 -11 -7 -6 3 -7 -1 -4 -10 4
-11 2 -14 -9 -10 -10 5 -16 -2 -19 -25 -3 -17 -1 -33 3 -36 5 -2 5 -12 2 -21
-4 -11 -3 -14 5 -9 7 4 12 2 12 -4 0 -6 5 -8 10 -5 6 3 10 2 10 -4 0 -5 11 -8
25 -5 19 3 23 1 19 -11 -4 -8 -1 -15 6 -15 9 0 9 -4 -1 -17 -12 -14 -12 -15
-1 -9 11 7 12 4 3 -13 -8 -14 -8 -21 -1 -21 8 0 8 -6 0 -20 -8 -15 -8 -20 2
-21 10 0 10 -2 -1 -6 -8 -3 -9 -8 -3 -12 7 -4 5 -13 -4 -25 -12 -17 -16 -17
-31 -5 -14 12 -16 12 -8 0 6 -11 4 -13 -8 -8 -12 4 -14 2 -10 -10 4 -10 2 -14
-4 -10 -10 6 -18 -10 -28 -51 -2 -7 3 -16 11 -19 8 -3 14 -11 14 -19 0 -8 5
-14 11 -14 5 0 7 -6 3 -12 -5 -9 -2 -9 9 1 13 11 17 11 17 1 0 -8 3 -10 7 -7
12 12 32 -27 22 -45 -6 -11 -5 -18 4 -21 9 -3 9 -7 -2 -20 -11 -14 -11 -17 0
-17 11 0 11 -2 -1 -10 -12 -8 -12 -10 -1 -10 10 0 11 -3 2 -14 -8 -9 -8 -15
-2 -18 6 -1 -1 -8 -14 -15 -14 -6 -23 -7 -20 -3 3 5 0 12 -6 16 -8 4 -9 3 -5
-4 4 -7 2 -12 -4 -12 -6 0 -9 -4 -5 -9 3 -5 1 -12 -5 -16 -5 -3 -10 -1 -10 4
0 6 -4 11 -9 11 -5 0 -9 -6 -8 -12 1 -38 -4 -50 -18 -44 -12 4 -13 2 -6 -13 9
-16 6 -17 -27 -11 -20 3 -36 11 -35 17 1 7 -7 9 -20 5 -12 -3 -19 -1 -15 3 4
4 -11 21 -32 36 -22 16 -40 32 -40 35 0 3 4 2 10 -1 6 -3 7 1 4 9 -3 9 -10 13
-15 10 -11 -6 -12 9 -2 20 14 14 11 40 -5 52 -16 12 -16 13 1 19 17 7 17 8 0
21 -17 14 -17 14 1 12 10 -2 21 4 23 12 4 12 3 12 -5 1 -6 -7 -12 -9 -15 -4
-7 11 39 37 73 42 5 0 6 8 3 18 -5 12 -3 14 8 8 11 -7 12 -6 2 6 -8 9 -9 20
-3 29 6 8 10 20 10 25 0 6 -5 3 -10 -5 -7 -11 -10 -11 -10 -2 0 8 -5 10 -12 6
-8 -5 -8 -2 1 10 8 9 10 16 5 15 -23 -4 -35 2 -28 14 6 9 5 9 -8 -1 -12 -10
-18 -9 -28 3 -10 12 -10 18 1 32 10 11 10 14 2 9 -7 -4 -13 -3 -13 3 0 5 5 13
10 16 13 8 13 25 -1 25 -5 0 -7 -6 -3 -12 4 -7 3 -10 -1 -5 -12 11 -13 47 -2
54 6 3 7 1 3 -5 -3 -6 -3 -13 2 -16 4 -2 8 6 8 19 0 13 -3 22 -6 20 -3 -2 -6
4 -6 14 0 18 21 21 44 8 8 -6 10 -3 5 9 -4 12 -3 15 5 10 7 -4 12 -1 12 7 0 8
9 24 20 37 23 27 23 27 8 36 -6 4 -8 3 -5 -3 3 -5 0 -10 -8 -10 -10 0 -11 5
-4 19 8 14 6 18 -7 18 -11 0 -14 5 -10 16 5 14 4 15 -9 4 -14 -12 -20 -7 -16
14 1 5 -6 3 -15 -5 -12 -9 -15 -9 -10 -1 4 6 3 12 -3 12 -6 0 -7 7 -4 17 4 10
2 14 -4 10 -5 -3 -10 0 -10 8 0 8 5 11 10 8 6 -4 8 1 4 11 -4 10 -3 15 3 11
17 -10 11 7 -7 22 -10 8 -12 12 -5 8 14 -7 15 -4 3 28 -7 17 -6 24 4 24 7 0
11 -7 8 -16 -3 -12 -2 -12 7 2 6 9 8 23 4 30 -4 6 -3 9 1 4 5 -4 17 1 28 10
10 10 22 18 26 18 3 0 5 4 3 9 -2 5 5 6 15 2 17 -6 17 -5 1 8 -19 14 -25 32
-9 21 5 -3 13 0 17 6 4 8 3 9 -5 5 -6 -4 -14 0 -18 11 -11 28 -32 46 -48 39
-9 -3 -15 1 -15 10 0 11 -5 14 -17 10 -14 -6 -14 -3 3 15 10 12 14 19 8 16 -7
-4 -15 0 -18 9 -3 8 -2 12 4 9 6 -3 10 -1 10 5 0 6 4 9 8 6 5 -3 9 1 9 9 0 11
-4 12 -14 4 -9 -9 -13 -8 -13 0 0 6 7 14 16 18 15 5 15 7 1 15 -10 5 -14 15
-10 25 5 12 3 14 -8 8 -12 -7 -12 -6 -1 7 7 9 24 15 37 13 14 -1 22 2 19 6 -4
8 8 13 27 11 3 -1 5 11 4 26 -1 15 2 32 7 39 7 8 -2 24 -29 50 -36 35 -89 97
-69 81 14 -12 35 24 25 43 -4 9 -5 20 -1 24 4 5 -1 5 -10 2 -21 -8 -13 19 8
27 10 4 13 1 9 -7 -4 -6 3 -1 14 12 19 21 26 20 22 -2 -1 -5 3 -6 8 -2 6 3 7
13 4 22 -5 12 -3 14 7 8 10 -6 12 -3 8 13 -4 12 -2 20 3 16 5 -3 9 0 9 5 0 6
-5 11 -11 11 -8 0 -7 6 2 17 12 14 12 16 0 8 -11 -6 -13 -3 -8 14 5 19 3 21
-11 9 -9 -7 -14 -8 -10 -4 4 5 3 15 -3 22 -8 10 -16 11 -31 3 -15 -8 -19 -8
-14 0 4 6 3 11 -3 11 -6 0 -15 10 -22 21 -8 16 -8 20 1 14 8 -5 8 -1 -1 13 -7
12 -15 19 -19 17 -3 -2 -6 13 -7 32 -1 20 -7 41 -14 47 -9 8 -10 6 -5 -9 5
-17 4 -17 -12 3 -17 22 -52 23 -52 0 0 -5 -3 -7 -7 -5 -10 6 -34 -18 -27 -27
2 -3 1 -4 -3 -1 -3 3 -17 -2 -29 -10 -15 -9 -25 -11 -29 -5 -4 6 -11 8 -16 5
-5 -3 -6 0 -3 8 3 8 -2 14 -11 15 -8 1 -22 3 -30 4 -11 1 -12 5 -4 14 8 9 5
11 -12 7 -13 -4 -20 -2 -16 4 3 5 0 10 -8 10 -8 0 -12 -4 -9 -9 3 -4 -7 -8
-22 -8 -15 0 -25 -3 -21 -6 9 -10 -19 -34 -40 -34 -15 0 -16 2 -3 11 12 8 11
9 -6 4 -13 -3 -28 0 -37 10 -18 18 -31 20 -21 3 4 -7 3 -8 -4 -4 -6 4 -8 14
-5 23 4 10 2 14 -5 9 -6 -3 -14 -1 -18 6 -13 20 -11 65 1 65 7 0 10 -8 8 -18
-3 -11 3 -19 16 -24 12 -3 21 -11 21 -17 0 -7 5 -6 14 1 10 8 16 9 21 1 9 -15
25 -12 25 5 0 9 8 19 18 23 12 5 17 19 18 45 1 34 -6 42 -30 38 -5 -1 -6 8 -3
19 5 20 4 21 -12 6 -12 -11 -20 -13 -28 -5 -8 8 -17 4 -33 -13 -13 -12 -19
-17 -15 -9 6 10 4 12 -4 6 -7 -4 -11 -16 -8 -26 6 -24 -2 -24 -18 -2 -11 14
-10 20 4 31 11 9 12 11 1 6 -12 -7 -13 -5 -3 8 7 8 10 18 6 22 -4 4 1 4 12 0
11 -4 17 -4 13 1 -4 4 -1 17 7 29 17 23 85 33 85 13 0 -7 5 -6 11 3 9 12 10
11 6 -7 -5 -20 -3 -22 16 -11 21 11 21 10 4 -9 -16 -19 -16 -20 1 -18 9 0 24
5 31 10 9 5 12 4 8 -2 -4 -6 0 -13 8 -17 8 -3 14 0 12 6 -1 6 4 13 12 16 9 3
11 0 6 -8 -5 -8 -4 -11 3 -6 6 3 9 15 7 26 -3 14 1 17 12 13 12 -5 15 -2 10 9
-4 12 -1 14 15 10 16 -4 19 -2 13 9 -8 12 -6 12 8 0 9 -7 23 -11 31 -8 8 3 17
-1 20 -9 4 -10 2 -13 -7 -8 -7 5 -7 1 2 -10 8 -9 28 -24 45 -33 30 -15 30 -15
16 2 -14 17 -14 18 8 6 17 -9 27 -9 36 -2 7 6 16 8 20 4 4 -4 4 1 0 11 -4 11
-2 21 7 27 11 7 11 9 1 9 -7 0 -10 5 -7 10 4 6 12 7 18 3 7 -3 3 4 -8 17 -11
13 -14 20 -7 16 19 -11 35 3 21 20 -9 11 -8 14 4 14 8 0 22 10 31 23 9 12 14
16 11 10 -3 -7 -1 -13 4 -13 6 0 11 5 11 12 0 6 3 9 6 5 3 -3 14 3 25 14 11
11 25 17 31 13 7 -4 8 -3 4 4 -4 6 -14 8 -24 5 -15 -6 -15 -5 -3 10 9 11 10
17 2 17 -6 0 -10 3 -10 8 3 19 -2 45 -7 39 -4 -3 -13 1 -21 9 -12 12 -18 12
-32 2 -9 -7 -13 -8 -9 -4 4 5 3 15 -3 23 -9 10 -8 17 2 30 12 14 12 16 0 8
-11 -6 -13 -4 -8 8 3 9 2 19 -3 22 -12 7 8 65 23 65 6 0 7 3 4 6 -4 4 -14 1
-23 -7 -16 -13 -16 -12 -5 9 7 12 16 20 22 17 5 -4 9 -1 9 5 0 8 6 8 20 0 17
-9 25 -8 18 3 -1 1 5 13 13 27 16 29 22 73 8 65 -5 -4 -9 3 -9 13 0 15 -5 19
-19 15 -12 -3 -24 3 -34 17 -8 12 -17 18 -19 13 -6 -10 0 12 9 35 6 15 5 16
-13 2 -12 -9 -10 -4 6 14 14 16 19 26 13 22 -7 -4 -13 -2 -13 3 0 10 14 15 32
12 4 0 5 5 2 13 -3 8 5 21 18 30 28 20 34 20 41 2 4 -11 -1 -13 -18 -10 -13 2
-26 0 -30 -6 -3 -5 0 -7 8 -4 8 3 18 1 22 -5 3 -6 -1 -11 -10 -11 -9 0 -13 -5
-10 -10 4 -6 11 -8 16 -5 5 4 9 1 9 -4 0 -6 -8 -11 -17 -11 -15 0 -15 -1 2
-13 11 -9 15 -19 10 -27 -5 -9 -4 -11 3 -6 7 4 12 3 12 -1 0 -5 10 -14 21 -22
19 -11 21 -11 16 3 -5 14 -3 15 13 6 24 -13 30 -13 30 1 0 5 -5 7 -12 3 -7 -4
-8 -3 -4 4 4 6 14 8 23 5 11 -4 14 -3 9 5 -4 7 -1 15 8 18 9 3 16 10 16 16 0
5 -4 7 -8 4 -4 -2 -8 6 -8 19 0 13 5 21 11 18 5 -3 -2 6 -17 21 -31 30 -36 41
-12 28 9 -5 26 -7 37 -4z m-447 -288 c0 -16 -2 -28 -4 -25 -9 8 -11 55 -3 55
4 0 7 -13 7 -30z m1 -110 c1 -11 -1 -22 -5 -24 -4 -2 -8 7 -8 20 -1 13 1 24 5
24 4 0 7 -9 8 -20z m1018 -90 c3 -5 1 -10 -4 -10 -6 0 -11 5 -11 10 0 6 2 10
4 10 3 0 8 -4 11 -10z m203 -165 c-3 -3 -9 2 -12 12 -6 14 -5 15 5 6 7 -7 10
-15 7 -18z m50 -120 c-3 -3 -9 2 -12 12 -6 14 -5 15 5 6 7 -7 10 -15 7 -18z
m-221 -39 c0 -8 -6 -12 -15 -9 -11 5 -11 7 0 14 7 5 13 9 14 9 0 0 1 -6 1 -14z
m-3 -34 c3 -5 -1 -9 -9 -9 -8 0 -15 4 -15 9 0 4 4 8 9 8 6 0 12 -4 15 -8z
m-1489 -260 c-3 -3 -11 0 -18 7 -9 10 -8 11 6 5 10 -3 15 -9 12 -12z m685
-216 c0 -3 -4 -8 -10 -11 -5 -3 -10 -1 -10 4 0 6 5 11 10 11 6 0 10 -2 10 -4z
m-13 -62 c-3 -3 6 -16 20 -28 20 -17 22 -23 10 -23 -10 0 -15 3 -12 5 3 3 -4
12 -15 19 -18 13 -20 33 -3 33 4 0 4 -3 0 -6z m-227 -1124 c0 -5 -2 -10 -4
-10 -3 0 -8 5 -11 10 -3 6 -1 10 4 10 6 0 11 -4 11 -10z m227 -115 c0 -8 -4
-12 -9 -9 -5 3 -6 10 -3 15 9 13 12 11 12 -6z m83 -381 c0 -8 -19 -13 -24 -6
-3 5 1 9 9 9 8 0 15 -2 15 -3z"/>
<path d="M3166 4808 c3 -5 10 -6 15 -3 13 9 11 12 -6 12 -8 0 -12 -4 -9 -9z"/>
<path d="M3275 4663 c6 -13 -6 -17 -34 -14 -7 2 -10 -2 -6 -8 3 -6 -1 -11 -9
-11 -18 0 -25 -27 -15 -57 7 -18 5 -21 -9 -17 -16 5 -16 5 0 -6 10 -6 15 -18
12 -28 -4 -10 -2 -13 3 -7 11 13 33 17 33 6 0 -5 7 -12 16 -15 8 -3 12 -2 9 4
-9 14 8 12 24 -2 11 -10 13 -10 7 0 -4 6 -2 12 4 12 6 0 8 6 5 13 -4 6 1 3 9
-7 18 -23 21 -14 5 16 -6 11 -7 18 -2 15 4 -3 17 7 28 22 15 20 15 23 2 12
-15 -12 -21 -9 -18 12 0 4 -3 7 -8 7 -5 0 -7 9 -4 20 3 12 0 20 -6 20 -7 0 -9
-4 -6 -10 12 -19 -7 -10 -27 13 -11 12 -17 16 -13 10z"/>
<path d="M3393 4345 c0 -8 4 -12 9 -9 5 3 6 10 3 15 -9 13 -12 11 -12 -6z"/>
<path d="M3295 4330 l20 -23 -27 18 c-16 10 -28 13 -28 6 0 -6 -7 -8 -17 -4
-12 5 -14 3 -8 -7 6 -10 4 -12 -8 -7 -13 5 -17 0 -18 -21 -2 -45 2 -66 17 -83
8 -9 11 -20 7 -24 -5 -5 5 -1 21 9 16 10 25 13 22 7 -14 -21 22 -11 38 12 9
12 14 15 11 7 -4 -8 1 -6 10 5 9 12 11 21 5 23 -5 2 -10 8 -10 13 0 6 4 8 9 4
5 -3 13 -1 16 5 4 6 3 10 -2 9 -20 -4 -24 2 -12 18 12 15 12 16 -3 10 -11 -4
-18 -2 -18 6 0 7 -10 18 -22 26 l-23 14 20 -23z m-54 -117 c13 -16 12 -17 -3
-4 -17 13 -22 21 -14 21 2 0 10 -8 17 -17z"/>
<path d="M3358 4343 c7 -3 16 -2 19 1 4 3 -2 6 -13 5 -11 0 -14 -3 -6 -6z"/>
<path d="M2696 4187 c3 -10 9 -15 12 -12 3 3 0 11 -7 18 -10 9 -11 8 -5 -6z"/>
<path d="M2936 4187 c3 -10 9 -15 12 -12 3 3 0 11 -7 18 -10 9 -11 8 -5 -6z"/>
<path d="M2960 4175 c-10 -12 -16 -13 -26 -4 -10 8 -14 8 -14 0 0 -6 -5 -11
-11 -11 -5 0 -7 6 -3 13 4 6 -3 2 -15 -10 -11 -12 -21 -29 -21 -38 0 -9 -4
-14 -9 -11 -5 4 -8 -2 -6 -11 2 -10 4 -21 4 -25 1 -5 8 -8 16 -8 8 0 15 -6 15
-14 0 -8 5 -18 12 -22 7 -5 8 -3 3 7 -8 12 -6 12 8 0 14 -11 17 -11 17 0 0 9
3 10 8 4 11 -16 41 -15 35 1 -3 8 2 16 10 20 9 3 18 12 21 20 4 9 2 12 -5 8
-8 -4 -7 0 0 15 9 15 9 21 1 21 -7 0 -9 9 -6 23 3 12 3 16 0 10 -9 -21 -27
-15 -21 7 6 24 4 25 -13 5z m-70 -81 c0 -8 -19 -13 -24 -6 -3 5 1 9 9 9 8 0
15 -2 15 -3z"/>
<path d="M3130 4172 c-8 -15 -11 -15 -20 -2 -9 13 -10 13 -11 0 -3 -41 -8 -74
-13 -85 -2 -6 0 -18 6 -26 8 -11 9 -10 4 4 -4 11 -2 16 5 11 6 -3 9 -15 6 -25
-3 -13 -1 -17 6 -12 16 10 38 10 60 0 12 -5 17 -3 17 8 0 8 7 15 16 15 11 0
15 8 12 28 -2 19 1 26 12 24 11 -2 11 1 -2 11 -10 8 -18 20 -18 26 0 7 -4 10
-9 7 -5 -3 -11 0 -14 8 -8 21 -46 26 -57 8z"/>
<path d="M3400 4175 c-9 -11 -16 -12 -25 -5 -8 7 -16 5 -27 -8 -22 -25 -30
-52 -15 -52 8 0 6 -4 -3 -10 -11 -7 -11 -10 -2 -10 7 0 11 -4 8 -9 -4 -5 0
-12 6 -14 10 -4 9 -8 -2 -16 -12 -9 -7 -10 18 -6 22 4 31 2 27 -5 -8 -13 17
-9 27 5 5 6 8 4 8 -4 0 -11 4 -10 16 5 8 10 12 13 8 5 -4 -8 -3 -12 2 -8 8 4
10 39 5 107 -1 12 -6 17 -15 14 -8 -3 -17 0 -22 7 -5 8 -3 10 6 4 9 -5 11 -4
6 3 -9 15 -11 15 -26 -3z m-30 -19 c0 -2 -7 -7 -16 -10 -8 -3 -12 -2 -9 4 6
10 25 14 25 6z"/>
<path d="M3607 4170 c-6 -21 -9 -22 -17 -10 -8 13 -10 12 -10 -3 0 -10 -4 -16
-9 -13 -4 3 -6 -11 -4 -32 2 -20 8 -39 14 -40 6 -3 6 -8 0 -15 -7 -9 0 -12 22
-11 18 0 40 -3 49 -8 10 -5 19 -4 23 2 4 6 11 8 16 5 5 -3 6 1 3 10 -4 9 2 25
12 36 17 19 17 20 -2 13 -17 -7 -17 -6 -5 9 9 11 10 17 2 17 -6 0 -10 6 -8 13
1 6 -4 11 -10 10 -12 -3 -17 9 -14 29 1 8 -20 5 -36 -5 -6 -4 -13 -2 -15 5 -3
7 -8 1 -11 -12z"/>
<path d="M3463 4132 c0 -12 5 -22 9 -22 11 0 10 12 -2 30 -7 12 -9 10 -7 -8z"/>
<path d="M3465 4091 c-3 -5 -2 -12 3 -15 5 -3 9 1 9 9 0 17 -3 19 -12 6z"/>
<path d="M2630 4039 c0 -5 5 -7 10 -4 6 3 10 8 10 11 0 2 -4 4 -10 4 -5 0 -10
-5 -10 -11z"/>
<path d="M3237 4013 c4 -9 2 -14 -3 -10 -6 3 -17 -9 -26 -28 -8 -19 -12 -32
-8 -30 4 3 11 -2 14 -11 3 -8 2 -12 -4 -9 -6 3 -10 1 -10 -4 0 -6 7 -11 15
-11 9 0 15 -10 16 -22 0 -13 3 -17 6 -10 2 6 11 12 19 12 9 0 12 -5 9 -10 -6
-10 15 -10 25 0 3 3 18 11 34 18 16 7 26 16 22 19 -3 3 0 13 7 21 10 13 9 14
-2 7 -11 -6 -13 -2 -7 20 7 26 6 27 -10 14 -11 -9 -15 -9 -10 -1 4 7 2 12 -4
12 -6 0 -8 5 -5 10 3 6 -1 10 -9 10 -9 0 -16 6 -16 13 0 8 -4 7 -10 -3 -8 -12
-13 -13 -29 -3 -17 11 -19 10 -14 -4z"/>
<path d="M3790 4010 c0 -5 5 -10 11 -10 5 0 7 5 4 10 -3 6 -8 10 -11 10 -2 0
-4 -4 -4 -10z"/>
<path d="M2915 3970 c4 -6 11 -8 16 -5 14 9 11 15 -7 15 -8 0 -12 -5 -9 -10z"/>
<path d="M3103 3965 c0 -8 4 -15 9 -15 4 0 8 4 8 9 0 6 -4 12 -8 15 -5 3 -9
-1 -9 -9z"/>
<path d="M3240 3690 c-5 -8 -12 -14 -17 -13 -4 0 -7 -3 -5 -8 1 -5 -3 -9 -8
-9 -7 0 -7 -7 1 -21 7 -13 7 -19 1 -15 -6 3 -13 2 -17 -4 -3 -5 1 -10 11 -10
11 0 15 -6 11 -19 -4 -15 0 -18 19 -16 14 1 27 -2 31 -8 4 -6 1 -7 -7 -2 -8 5
-11 4 -7 -3 4 -5 15 -9 25 -7 9 2 21 4 26 4 5 1 7 4 3 7 -8 9 16 33 27 26 5
-3 6 3 3 12 -6 14 -3 17 10 12 16 -5 16 -4 3 6 -9 7 -15 20 -15 28 0 8 -7 22
-17 31 -10 9 -16 18 -14 20 3 2 -9 4 -26 4 -16 0 -34 -7 -38 -15z"/>
<path d="M3237 3376 c-9 -7 -17 -18 -17 -25 0 -6 -4 -11 -9 -11 -5 0 -8 -8 -6
-17 2 -10 4 -28 4 -41 1 -13 5 -20 11 -17 6 3 10 2 10 -4 0 -5 14 -8 32 -6 28
4 29 3 13 -9 -15 -11 -16 -13 -1 -13 8 0 19 9 22 20 4 13 9 16 14 8 5 -8 13
-4 25 15 17 26 17 27 0 20 -14 -5 -15 -3 -8 6 6 7 8 28 6 46 -4 27 -8 30 -19
21 -11 -9 -13 -9 -9 2 4 10 -2 15 -15 16 -13 1 -18 -2 -13 -10 5 -9 3 -9 -8 0
-11 9 -18 8 -32 -1z"/>
<path d="M3179 3093 c-12 -16 -12 -17 2 -6 9 7 20 9 24 5 5 -4 5 -1 1 6 -9 16
-11 15 -27 -5z"/>
<path d="M3284 3079 c-3 -6 -14 -9 -24 -6 -11 3 -21 -2 -24 -10 -4 -9 -2 -12
7 -7 7 4 9 3 4 -2 -8 -9 -12 -10 -39 -13 -9 -1 -8 -4 2 -11 9 -6 10 -10 3 -10
-7 0 -10 -9 -6 -22 3 -13 6 -31 6 -40 1 -9 5 -14 9 -12 4 3 8 0 8 -7 0 -7 3
-9 6 -6 4 3 15 2 25 -4 13 -6 19 -6 19 1 0 5 5 10 11 10 5 0 7 -6 3 -12 -5 -9
-3 -9 9 1 9 7 14 18 10 24 -3 6 -1 7 5 3 7 -4 12 -1 12 9 0 9 5 13 10 10 6 -3
10 -1 10 4 0 6 -4 11 -10 11 -5 0 -10 5 -10 11 0 5 4 8 9 4 5 -3 13 -1 16 5 4
6 1 9 -7 8 -7 -2 -14 7 -16 19 -2 12 -10 24 -18 27 -9 3 -12 1 -9 -4 3 -6 1
-10 -6 -10 -6 0 -9 8 -6 20 6 22 2 26 -9 9z"/>
<path d="M3250 2758 c0 -10 -5 -17 -12 -15 -7 1 -12 -3 -13 -10 0 -6 -4 -15
-9 -20 -6 -5 -6 -2 -1 7 5 9 5 12 -1 7 -5 -5 -9 -12 -9 -15 0 -4 -4 -13 -9
-20 -5 -8 -4 -18 3 -25 9 -9 10 -7 5 8 -4 11 -4 17 0 13 7 -5 13 -26 15 -50 1
-5 8 -8 16 -8 8 0 15 -8 16 -17 0 -15 2 -15 9 2 5 11 9 15 9 9 1 -7 8 -15 17
-18 14 -5 15 -4 4 9 -11 13 -10 14 4 9 9 -3 16 -2 16 4 0 5 8 12 18 14 18 5
27 38 11 38 -5 0 -6 6 -3 14 3 7 -2 20 -10 29 -19 18 -21 31 -4 21 6 -4 8 -3
5 3 -4 6 -18 8 -33 5 -16 -3 -29 1 -35 9 -7 11 -9 10 -9 -3z"/>
<path d="M3176 2462 c-3 -5 1 -9 9 -9 8 0 12 4 9 9 -3 4 -7 8 -9 8 -2 0 -6 -4
-9 -8z"/>
<path d="M3261 2445 c-1 -6 -10 -16 -22 -23 -15 -10 -19 -10 -14 -1 6 8 4 10
-4 5 -7 -5 -10 -14 -7 -22 3 -8 1 -14 -4 -14 -5 0 -6 -10 -3 -22 2 -13 5 -30
5 -39 0 -9 6 -16 14 -17 8 -1 21 -3 29 -4 8 -1 15 -6 15 -12 0 -6 5 -4 10 4 7
11 10 12 10 2 0 -10 4 -9 16 2 8 9 19 14 24 11 5 -3 12 0 16 6 4 7 3 9 -4 5
-6 -3 -13 -2 -16 3 -3 5 1 11 9 15 8 3 15 13 15 21 0 9 -4 13 -10 10 -6 -3
-11 5 -11 19 -2 38 -3 44 -11 52 -4 3 -5 -3 -3 -16 3 -18 2 -20 -10 -10 -8 7
-12 17 -8 24 4 6 0 5 -9 -2 -13 -10 -17 -10 -21 0 -3 7 -6 8 -6 3z"/>
<path d="M3186 2255 c10 -8 23 -15 28 -15 6 0 1 7 -10 15 -10 8 -23 15 -28 15
-6 0 -1 -7 10 -15z"/>
<path d="M1873 5151 c0 -11 5 -18 9 -15 4 3 5 11 1 19 -7 21 -12 19 -10 -4z"/>
<path d="M1873 4911 c0 -11 5 -18 9 -15 4 3 5 11 1 19 -7 21 -12 19 -10 -4z"/>
<path d="M4645 4920 c-3 -6 1 -7 9 -4 18 7 21 14 7 14 -6 0 -13 -4 -16 -10z"/>
<path d="M4645 4280 c-3 -6 1 -7 9 -4 18 7 21 14 7 14 -6 0 -13 -4 -16 -10z"/>
<path d="M1873 4031 c0 -11 5 -18 9 -15 4 3 5 11 1 19 -7 21 -12 19 -10 -4z"/>
<path d="M1873 3791 c0 -11 5 -18 9 -15 4 3 5 11 1 19 -7 21 -12 19 -10 -4z"/>
<path d="M2870 3706 c0 -2 7 -7 16 -10 8 -3 12 -2 9 4 -6 10 -25 14 -25 6z"/>
<path d="M4645 3640 c-3 -6 1 -7 9 -4 18 7 21 14 7 14 -6 0 -13 -4 -16 -10z"/>
<path d="M1873 3551 c0 -11 5 -18 9 -15 4 3 5 11 1 19 -7 21 -12 19 -10 -4z"/>
<path d="M1873 3311 c0 -11 5 -18 9 -15 4 3 5 11 1 19 -7 21 -12 19 -10 -4z"/>
<path d="M1873 3071 c0 -11 5 -18 9 -15 4 3 5 11 1 19 -7 21 -12 19 -10 -4z"/>
<path d="M4645 3000 c-3 -6 1 -7 9 -4 18 7 21 14 7 14 -6 0 -13 -4 -16 -10z"/>
<path d="M2875 2500 c-3 -5 -2 -10 4 -10 5 0 13 5 16 10 3 6 2 10 -4 10 -5 0
-13 -4 -16 -10z"/>
<path d="M4645 2360 c-3 -6 1 -7 9 -4 18 7 21 14 7 14 -6 0 -13 -4 -16 -10z"/>
<path d="M1879 2208 c-5 -18 -6 -38 -1 -34 7 8 12 36 6 36 -2 0 -4 -1 -5 -2z"/>
<path d="M2910 2186 c0 -2 8 -10 18 -17 15 -13 16 -12 3 4 -13 16 -21 21 -21
13z"/>
<path d="M1873 1951 c0 -11 5 -18 9 -15 4 3 5 11 1 19 -7 21 -12 19 -10 -4z"/>
<path d="M1876 1887 c3 -10 9 -15 12 -12 3 3 0 11 -7 18 -10 9 -11 8 -5 -6z"/>
<path d="M1337 5029 c7 -7 15 -10 18 -7 3 3 -2 9 -12 12 -14 6 -15 5 -6 -5z"/>
<path d="M1330 4536 c0 -2 8 -10 18 -17 15 -13 16 -12 3 4 -13 16 -21 21 -21
13z"/>
<path d="M1616 4355 c4 -8 10 -12 15 -9 11 6 2 24 -11 24 -5 0 -7 -7 -4 -15z"/>
<path d="M1330 4296 c0 -2 8 -10 18 -17 15 -13 16 -12 3 4 -13 16 -21 21 -21
13z"/>
<path d="M1330 4056 c0 -2 8 -10 18 -17 15 -13 16 -12 3 4 -13 16 -21 21 -21
13z"/>
<path d="M1330 3816 c0 -2 8 -10 18 -17 15 -13 16 -12 3 4 -13 16 -21 21 -21
13z"/>
<path d="M1330 3576 c0 -2 8 -10 18 -17 15 -13 16 -12 3 4 -13 16 -21 21 -21
13z"/>
<path d="M1330 3336 c0 -2 8 -10 18 -17 15 -13 16 -12 3 4 -13 16 -21 21 -21
13z"/>
<path d="M1330 3096 c0 -2 8 -10 18 -17 15 -13 16 -12 3 4 -13 16 -21 21 -21
13z"/>
<path d="M1330 2856 c0 -2 8 -10 18 -17 15 -13 16 -12 3 4 -13 16 -21 21 -21
13z"/>
<path d="M1330 2616 c0 -2 8 -10 18 -17 15 -13 16 -12 3 4 -13 16 -21 21 -21
13z"/>
<path d="M1616 2435 c4 -8 10 -12 15 -9 11 6 2 24 -11 24 -5 0 -7 -7 -4 -15z"/>
<path d="M1330 2376 c0 -2 8 -10 18 -17 15 -13 16 -12 3 4 -13 16 -21 21 -21
13z"/>
<path d="M1333 1551 c0 -11 5 -18 9 -15 4 3 5 11 1 19 -7 21 -12 19 -10 -4z"/>
<path d="M1337 1505 c3 -8 9 -12 14 -9 12 7 11 11 -5 17 -10 4 -13 1 -9 -8z"/>
<path d="M2085 1060 c-3 -5 1 -10 10 -10 9 0 13 5 10 10 -3 6 -8 10 -10 10 -2
0 -7 -4 -10 -10z"/>
<path d="M2360 1026 c14 -18 13 -19 -12 -14 -18 3 -25 1 -22 -7 3 -7 -2 -20
-11 -29 -12 -12 -13 -16 -3 -16 10 0 9 -3 -2 -10 -13 -9 -13 -11 0 -20 11 -7
12 -10 2 -10 -25 0 15 -30 40 -30 19 0 20 -2 8 -10 -11 -8 -9 -9 10 -6 14 3
27 5 30 6 3 2 8 2 13 1 4 0 8 3 8 9 1 6 2 14 3 20 0 5 8 15 16 22 12 11 12 11
1 -4 -7 -10 -9 -18 -5 -18 5 0 15 9 22 20 7 11 9 20 5 19 -28 -5 -34 2 -16 19
10 9 14 14 9 10 -18 -14 -26 -9 -26 16 0 20 -4 22 -26 18 -21 -4 -25 -2 -19 9
5 8 5 11 0 7 -4 -4 -15 -2 -24 5 -14 11 -15 10 -1 -7z"/>
<path d="M4915 5329 c-4 -6 -5 -12 -2 -15 2 -3 7 2 10 11 7 17 1 20 -8 4z"/>
<path d="M4915 5009 c-4 -6 -5 -12 -2 -15 2 -3 7 2 10 11 7 17 1 20 -8 4z"/>
<path d="M4915 4689 c-4 -6 -5 -12 -2 -15 2 -3 7 2 10 11 7 17 1 20 -8 4z"/>
<path d="M1075 4620 c3 -5 8 -10 11 -10 2 0 4 5 4 10 0 6 -5 10 -11 10 -5 0
-7 -4 -4 -10z"/>
<path d="M4915 4369 c-4 -6 -5 -12 -2 -15 2 -3 7 2 10 11 7 17 1 20 -8 4z"/>
<path d="M4915 4049 c-4 -6 -5 -12 -2 -15 2 -3 7 2 10 11 7 17 1 20 -8 4z"/>
<path d="M4915 3729 c-4 -6 -5 -12 -2 -15 2 -3 7 2 10 11 7 17 1 20 -8 4z"/>
<path d="M1075 3660 c3 -5 8 -10 11 -10 2 0 4 5 4 10 0 6 -5 10 -11 10 -5 0
-7 -4 -4 -10z"/>
<path d="M4915 3409 c-4 -6 -5 -12 -2 -15 2 -3 7 2 10 11 7 17 1 20 -8 4z"/>
<path d="M4915 3089 c-4 -6 -5 -12 -2 -15 2 -3 7 2 10 11 7 17 1 20 -8 4z"/>
<path d="M4915 2769 c-4 -6 -5 -12 -2 -15 2 -3 7 2 10 11 7 17 1 20 -8 4z"/>
<path d="M1075 2700 c3 -5 8 -10 11 -10 2 0 4 5 4 10 0 6 -5 10 -11 10 -5 0
-7 -4 -4 -10z"/>
<path d="M4915 2449 c-4 -6 -5 -12 -2 -15 2 -3 7 2 10 11 7 17 1 20 -8 4z"/>
<path d="M1075 2220 c3 -5 8 -10 11 -10 2 0 4 5 4 10 0 6 -5 10 -11 10 -5 0
-7 -4 -4 -10z"/>
<path d="M4915 2129 c-4 -6 -5 -12 -2 -15 2 -3 7 2 10 11 7 17 1 20 -8 4z"/>
<path d="M4915 1809 c-4 -6 -5 -12 -2 -15 2 -3 7 2 10 11 7 17 1 20 -8 4z"/>
<path d="M3427 1295 c-5 -10 -3 -14 5 -9 7 4 8 3 4 -5 -5 -7 -12 -9 -19 -3 -7
5 -25 12 -42 16 -23 5 -27 4 -15 -5 12 -9 11 -10 -7 -6 -13 3 -23 1 -23 -5 0
-5 -4 -6 -10 -3 -5 3 -10 1 -10 -5 0 -6 -5 -8 -12 -4 -8 5 -8 2 1 -10 8 -9 10
-16 5 -15 -20 4 -24 -2 -14 -21 9 -17 8 -19 -7 -13 -10 3 -15 3 -11 -2 4 -4 2
-15 -5 -23 -10 -13 -9 -14 11 -3 14 7 22 8 22 1 0 -5 -5 -10 -11 -10 -5 0 -7
-5 -4 -10 4 -6 11 -8 16 -5 5 3 6 -1 3 -9 -3 -9 -1 -16 6 -16 6 0 8 -6 4 -12
-6 -10 -4 -10 7 0 7 6 17 12 21 12 4 0 8 -6 8 -12 0 -7 13 -13 30 -14 19 -1
27 3 23 10 -4 6 4 2 16 -8 17 -16 20 -16 16 -4 -4 9 -1 19 6 24 7 4 10 3 5 -4
-10 -16 27 -20 45 -5 13 11 16 11 16 -2 0 -8 -5 -11 -10 -8 -6 3 -7 1 -3 -5 5
-9 15 -7 34 6 14 9 23 12 19 6 -13 -22 21 -23 37 -1 10 14 18 18 23 11 5 -7
15 -3 27 10 16 16 17 18 3 13 -15 -6 -16 -3 -7 13 6 11 13 20 16 20 3 0 2 -4
-1 -10 -3 -5 -1 -10 5 -10 7 0 9 8 5 20 -4 13 -2 20 7 20 7 1 2 8 -12 16 -14
8 -17 13 -7 10 14 -4 16 -2 8 12 -15 27 -52 54 -67 48 -7 -3 -18 3 -23 12 -8
14 -10 14 -11 2 0 -19 -98 -20 -109 -1 -6 10 -10 9 -14 -4z"/>
<path d="M3993 1292 c4 -17 2 -21 -6 -14 -19 14 -49 23 -42 12 3 -6 2 -10 -4
-10 -5 0 -12 6 -14 13 -4 9 -6 9 -6 -1 -1 -7 -6 -10 -12 -7 -16 10 -69 12 -63
3 3 -4 1 -8 -5 -8 -5 0 -12 6 -14 13 -4 9 -6 8 -6 -2 -1 -11 -4 -11 -16 -1
-10 9 -15 9 -15 1 0 -6 -3 -10 -7 -10 -26 4 -43 -2 -37 -13 5 -8 1 -8 -12 2
-10 8 -16 10 -12 6 4 -5 2 -16 -5 -24 -10 -13 -9 -15 3 -8 8 4 7 1 -3 -7 -11
-10 -14 -18 -8 -22 14 -8 8 -44 -10 -57 -12 -8 -12 -9 1 -6 8 3 25 -7 38 -21
14 -14 19 -18 12 -8 -11 15 -10 17 4 11 9 -3 16 -12 16 -19 0 -19 17 -28 26
-14 5 8 3 9 -7 4 -8 -5 -11 -4 -6 0 10 11 48 14 41 3 -3 -4 0 -8 5 -8 6 0 11
5 11 10 0 8 6 8 17 1 13 -7 23 -5 34 5 14 12 16 12 16 -1 0 -8 -5 -11 -10 -8
-6 4 -7 1 -2 -7 6 -10 10 -10 20 3 7 10 16 13 25 7 9 -6 20 -4 31 6 14 12 16
12 16 -1 0 -8 -5 -11 -10 -8 -6 4 -7 1 -2 -6 5 -9 10 -10 18 -2 14 14 60 15
52 1 -3 -6 1 -7 9 -4 9 3 14 9 11 13 -2 4 2 8 10 8 8 0 12 -4 10 -8 -3 -4 2
-10 11 -13 8 -3 12 -2 9 4 -3 6 1 10 10 10 10 0 13 5 9 12 -4 7 -3 8 5 4 6 -4
8 -12 5 -18 -5 -8 -1 -9 11 -5 9 4 25 2 33 -5 9 -8 13 -8 9 -2 -4 7 3 14 17
16 19 4 23 1 19 -11 -5 -13 -3 -13 7 -4 7 6 19 9 28 6 11 -5 13 -3 7 8 -5 8 2
5 14 -5 17 -16 20 -16 16 -4 -4 9 -1 19 6 24 7 4 10 3 5 -4 -3 -6 -2 -13 4
-17 5 -3 10 -1 10 5 0 8 5 8 17 1 13 -7 23 -5 34 5 14 12 16 12 16 -1 0 -8 -5
-11 -10 -8 -6 4 -7 1 -2 -7 6 -10 10 -10 20 3 7 10 16 13 25 7 9 -6 20 -4 31
6 14 12 16 12 16 -1 0 -8 -5 -11 -11 -8 -6 3 -8 2 -3 -2 9 -11 57 -13 51 -3
-3 4 2 8 11 8 10 0 13 5 9 12 -4 7 -3 8 5 4 6 -4 9 -12 6 -17 -9 -13 9 -11 24
4 11 10 13 10 7 0 -8 -15 10 -18 19 -4 3 6 21 4 46 -4 22 -8 37 -10 34 -5 -3
6 1 10 10 10 10 0 13 5 9 12 -4 7 -3 8 5 4 6 -4 8 -12 5 -18 -5 -8 -1 -9 11
-5 9 4 25 2 33 -5 13 -11 14 -11 7 1 -6 11 -1 12 30 7 32 -6 37 -5 31 9 -3 10
-2 14 5 10 5 -4 17 -1 26 7 12 9 15 9 9 1 -5 -9 -2 -11 8 -7 18 7 22 24 5 24
-5 0 -7 5 -4 10 4 6 11 7 17 4 6 -4 5 3 -2 16 -11 20 -10 21 9 11 17 -10 20
-9 15 4 -4 8 -10 15 -14 15 -5 0 -10 12 -12 28 -2 19 -8 27 -21 26 -13 -2 -15
1 -7 11 8 9 2 12 -25 9 -19 -1 -33 1 -30 5 2 5 -7 6 -20 3 -14 -2 -25 -9 -26
-16 -1 -6 -5 0 -9 14 -7 21 -8 22 -9 5 -1 -17 -3 -17 -11 -5 -7 11 -10 11 -10
2 0 -7 -5 -10 -10 -7 -6 4 -8 11 -5 16 4 5 1 9 -4 9 -6 0 -11 -6 -11 -14 0
-16 -31 -16 -42 -1 -5 6 -8 6 -8 -2 0 -6 -9 -9 -20 -6 -13 3 -20 0 -21 -8 -1
-8 -5 -3 -9 11 -7 21 -8 22 -9 5 -1 -17 -3 -17 -11 -5 -7 11 -10 11 -10 2 0
-7 -5 -10 -10 -7 -6 4 -8 11 -5 16 4 5 1 9 -4 9 -6 0 -11 -6 -11 -12 0 -20
-178 -17 -192 3 -7 11 -9 9 -5 -9 4 -17 2 -21 -6 -14 -19 14 -49 23 -42 12 3
-6 1 -10 -4 -10 -6 0 -11 6 -11 13 0 7 -3 8 -8 2 -4 -6 -56 -10 -120 -10 -88
1 -115 4 -123 15 -8 12 -10 10 -6 -8z"/>
<path d="M1515 1251 c-3 -5 -2 -12 3 -15 5 -3 9 1 9 9 0 17 -3 19 -12 6z"/>
<path d="M3694 1195 c3 -23 12 -26 13 -5 1 11 -2 20 -7 20 -4 0 -7 -7 -6 -15z"/>
<path d="M1891 607 c-8 -10 -7 -14 2 -14 8 0 14 6 14 14 0 7 -1 13 -2 13 -2 0
-8 -6 -14 -13z"/>
<path d="M1891 487 c-8 -10 -7 -14 2 -14 8 0 14 6 14 14 0 7 -1 13 -2 13 -2 0
-8 -6 -14 -13z"/>
</g>
</svg>
